<svg xmlns="http://www.w3.org/2000/svg" width="60" height="60" viewBox="0 0 60 60" fill="none"><path d="M5.40233 26.3145H10.0022V42.3353H5.40233C4.07971 42.3353 3.00757 41.2609 3.00757 39.9356V28.7141C3.00757 27.3888 4.07971 26.3145 5.40233 26.3145Z" fill="url(#paint0_linear_82_1624)"></path><path d="M41.9772 58.9518H17.9958C17.9958 55.377 22.5723 52.4233 28.4876 52.0028C28.9773 51.9627 29.4768 51.9426 29.9864 51.9426C36.6113 51.9426 41.9772 55.0767 41.9772 58.9518Z" fill="#94D0C9"></path><path d="M38.9794 58.9519H17.9958C17.9958 55.3772 22.5723 52.4234 28.4876 52.0029C34.403 52.4234 38.9794 55.3773 38.9794 58.9519Z" fill="url(#paint1_linear_82_1624)"></path><path d="M17.996 26.3145L21.1149 29.4399C21.6771 30.0032 22.4396 30.3197 23.2346 30.3197H26.989C28.6446 30.3197 29.9866 31.6646 29.9866 33.3236C29.9866 34.9825 28.6445 36.3275 26.989 36.3275H21.2361C20.4411 36.3275 19.6786 36.011 19.1165 35.4477L10.0022 26.3145H17.996Z" fill="url(#paint2_linear_82_1624)"></path><path d="M29.9865 33.3283C29.9839 34.9863 28.6434 36.3297 26.9888 36.3322H23.9912C25.6468 36.3322 26.9888 34.9873 26.9888 33.3283C26.9888 31.6694 25.6467 30.3245 23.9912 30.3245H26.9888C27.7842 30.3234 28.5473 30.6395 29.1097 31.2031C29.672 31.7666 29.9875 32.5313 29.9865 33.3283Z" fill="#94D0C9"></path><path d="M17.9959 42.1599V55.3572C17.994 57.3417 16.3891 58.9499 14.4087 58.9518H13.5893C11.609 58.9499 10.0041 57.3417 10.0022 55.3572V42.1599H17.9959Z" fill="url(#paint3_linear_82_1624)"></path><path d="M17.996 34.3297V42.16H10.0022V26.3193L17.996 34.3297Z" fill="url(#paint4_linear_82_1624)"></path><path d="M52.9685 7.80516H45.974V3.79991C45.9509 3.26952 45.5041 2.85759 44.9748 2.87871H30.9857C30.4563 2.85759 30.0095 3.26952 29.9866 3.79991V10.9693C30.0097 11.4996 30.4565 11.9115 30.9857 11.8905H38.9795V16.897C38.9772 17.1752 39.0935 17.4412 39.2993 17.6279C39.4829 17.8019 39.7261 17.8987 39.9788 17.8982H52.9687C53.5199 17.8965 53.9663 17.4492 53.9679 16.897V8.80653C53.9661 8.25419 53.5197 7.80683 52.9685 7.80516Z" fill="#94D0C9"></path><path d="M45.974 3.79991V11.8905H30.9857C30.4563 11.9115 30.0097 11.4996 29.9866 10.9693V3.79991C30.0097 3.26952 30.4563 2.85759 30.9857 2.87871H44.9748C45.5042 2.85771 45.9509 3.26952 45.974 3.79991Z" fill="url(#paint5_linear_82_1624)"></path><path opacity="0.498233" d="M53.9679 8.80655V16.8971C53.9662 17.4494 53.5198 17.8968 52.9687 17.8983H39.9788C39.7261 17.8988 39.4829 17.8021 39.2993 17.628L45.9741 11.8906V7.80518H52.9686C53.5198 7.80685 53.9662 8.25421 53.9679 8.80655Z" fill="#80D8C8"></path><path d="M50.9701 8.80655V16.8971C50.9685 17.4494 50.5221 17.8968 49.971 17.8983H39.9788C39.7261 17.8988 39.4829 17.8021 39.2993 17.628L45.9741 11.8906V7.80518H49.971C50.5222 7.80685 50.9686 8.25421 50.9701 8.80655Z" fill="#034B47"></path><path d="M22.9921 17.2274C22.9923 19.663 22.009 21.9951 20.266 23.6926C18.523 25.3902 16.1688 26.3086 13.7392 26.2391C8.99564 26.0517 5.19314 22.2411 5.00599 17.4876C4.86611 12.6213 8.60968 8.52408 13.4594 8.23562C13.6393 8.2256 13.8192 8.21558 13.999 8.21558V15.2247C13.9988 15.7559 14.2093 16.2653 14.5841 16.641C14.9588 17.0165 15.4673 17.2276 15.9974 17.2273H22.9921V17.2274Z" fill="url(#paint6_linear_82_1624)"></path><path d="M13.999 8.21899V15.2282C13.999 16.3342 14.8938 17.2309 15.9975 17.2309H22.992C22.992 12.2537 18.9657 8.21899 13.999 8.21899Z" fill="#EBE3F2"></path><path d="M58.9639 59.9532H1.00918C0.457272 59.9532 0.0100098 59.5049 0.0100098 58.9519C0.0100098 58.3989 0.457391 57.9507 1.00918 57.9507H58.9639C59.5158 57.9507 59.9631 58.399 59.9631 58.9519C59.9631 59.5049 59.5158 59.9532 58.9639 59.9532Z" fill="#40887B"></path><path d="M21.9929 16.897C21.9929 17.0071 21.9929 17.1173 21.9829 17.2275H19.9844C19.9944 17.1173 19.9944 17.0071 19.9944 16.897C19.9979 13.0781 17.5941 9.67351 13.9991 8.40599V8.21571C13.8192 8.21571 13.6393 8.22573 13.4595 8.23575C12.9835 8.09295 12.495 7.99573 12.0007 7.94538C12.3323 7.90506 12.666 7.88502 12.9999 7.88526C17.9663 7.88562 21.9924 11.9201 21.9929 16.897Z" fill="#94D0C9"></path><path d="M13.999 8.40585C13.8236 8.33559 13.6433 8.27868 13.4595 8.23562C13.6394 8.2256 13.8192 8.21558 13.999 8.21558V8.40585Z" fill="#94D0C9"></path><path d="M22.992 17.2274C22.992 23.9061 17.8561 25.9087 12.9999 25.9087C12.666 25.909 12.3323 25.8889 12.0007 25.8486C16.4262 25.3545 19.8229 21.6866 19.9845 17.2273H22.992V17.2274Z" fill="#94D0C9"></path><path d="M13.0908 55.3771V42.3552H10.0723V55.3771C10.0733 56.3582 10.4794 57.2959 11.1953 57.9705H14.2139C13.498 57.2959 13.0919 56.3582 13.0908 55.3771Z" fill="#4EBCB9"></path><path d="M3.02856 28.7341V39.9556C3.02856 41.281 4.1082 42.3554 5.44007 42.3554H8.45865C7.12679 42.3554 6.04715 41.281 6.04715 39.9556V28.7341C6.04715 27.4089 7.12679 26.3345 8.45865 26.3345H5.44007C4.10832 26.3345 3.02856 27.4087 3.02856 28.7341Z" fill="#4EBCB9"></path><path d="M5.04092 17.5078C5.11393 20.1211 6.32448 22.5737 8.35813 24.2286C10.3918 25.8835 13.0477 26.5773 15.6361 26.1297C11.3881 25.385 8.23465 21.7966 8.05951 17.5078C7.92884 12.9297 11.2713 8.983 15.8274 8.3357C14.9429 8.05213 14.0197 7.90695 13.0905 7.90528C12.7543 7.90504 12.4182 7.92508 12.0844 7.9654C12.5822 8.01575 13.0741 8.11297 13.5534 8.25577C8.66994 8.54411 4.90019 12.6415 5.04092 17.5078Z" fill="#4EBCB9"></path><path d="M34.221 2.89873H31.2024C30.6693 2.87761 30.2194 3.28954 30.1963 3.81993V10.9893C30.2195 11.5197 30.6695 11.9315 31.2024 11.9105H34.221C33.6879 11.9315 33.2381 11.5197 33.2149 10.9893V3.81993C33.238 3.28954 33.6879 2.87761 34.221 2.89873Z" fill="#4EBCB9"></path><path d="M3.02859 58.9718C3.02847 58.7063 3.13457 58.4516 3.32326 58.2637C3.51195 58.0759 3.76789 57.9705 4.03487 57.9705H1.01616C0.460399 57.9705 0.0100098 58.4188 0.0100098 58.9717C0.0100098 59.5248 0.460519 59.973 1.01616 59.973H4.03475C3.76789 59.9731 3.51195 59.8675 3.32314 59.6797C3.13457 59.4921 3.02859 59.2374 3.02859 58.9718Z" fill="white"></path><path d="M9.00293 55.3619V42.372V26.3845H11.0014V42.372V55.3619H9.00293Z" fill="#4EBCB9"></path><path d="M58.9639 57.9548H42.8693C42.1308 54.1621 37.2436 51.2715 30.9857 50.9903V12.9899H37.9802V16.9868C37.9816 18.09 38.8755 18.9839 39.9787 18.9852H52.9686C54.0718 18.9839 54.9657 18.09 54.967 16.9868V8.91583C54.9657 7.81262 54.0718 6.91869 52.9686 6.91738H46.9732V3.91976C46.9501 2.83809 46.0564 1.97893 44.9748 1.99845H30.9858V0.999166C30.9858 0.447262 30.5385 0 29.9867 0C29.4348 0 28.9875 0.447381 28.9875 0.999166V29.9382C28.3827 29.5782 27.6929 29.3863 26.9891 29.3823H23.2342C22.7044 29.3808 22.1967 29.1705 21.8212 28.7968L19.0372 26.0127C19.7363 25.6062 20.3837 25.1168 20.9655 24.555C23.5482 22.0431 24.5787 18.3354 23.6625 14.8511C22.7463 11.3668 20.0252 8.64548 16.5411 7.72893C13.0569 6.81238 9.34882 7.8425 6.83668 10.425C4.94668 12.3556 3.92608 14.9738 4.01084 17.6742C4.1243 20.7317 5.62572 23.5706 8.08894 25.3855H5.40227C3.5287 25.3875 2.01037 26.9057 2.00846 28.7793V39.977C2.01037 41.8507 3.52858 43.3692 5.40227 43.3714H9.00299C9.00727 43.9202 9.45346 44.3629 10.0023 44.3629C10.5511 44.3629 10.9972 43.9201 11.0013 43.3713V43.1974H16.9967V55.3621C16.995 56.7933 15.8352 57.9532 14.4039 57.9549H13.5941C12.1629 57.9532 11.003 56.7934 11.0013 55.3621V51.3651C11.0013 50.8132 10.5539 50.3659 10.0022 50.3659C9.45025 50.3659 9.00299 50.8133 9.00299 51.3651V55.362C9.00275 56.2883 9.28453 57.1927 9.81084 57.9549H1.00918C0.457272 57.9549 0.0100098 58.4023 0.0100098 58.954C0.0100098 59.5059 0.457391 59.9532 1.00918 59.9532H58.9639C59.5158 59.9532 59.9631 59.5058 59.9631 58.954C59.9631 58.4021 59.5158 57.9548 58.9639 57.9548ZM18.9951 54.6503V36.684C19.6567 37.132 20.4366 37.373 21.2356 37.3759H26.9889C27.6927 37.3719 28.3826 37.18 28.9874 36.8201V50.9902C24.7304 51.1815 21.111 52.5798 18.9951 54.6503ZM43.275 12.9899L39.9787 15.8173V12.9899H43.275ZM52.9686 8.91583V16.9867H41.6847L46.625 12.7488C46.6363 12.739 46.6426 12.7258 46.6533 12.7157C46.7333 12.6288 46.803 12.533 46.8608 12.43C46.878 12.3957 46.8931 12.3604 46.9061 12.3242C46.9372 12.2364 46.9556 12.1448 46.9611 12.0519C46.9624 12.0306 46.9733 12.0124 46.9733 11.9907V8.91583H52.9686ZM44.9749 3.91976V10.9914H38.9795C38.9173 10.9977 38.8558 11.0101 38.7961 11.0285L30.9858 11.0686V3.9969L44.9749 3.91976ZM23.2341 31.3807H26.9889C28.0926 31.3807 28.9874 32.2755 28.9874 33.3792C28.9874 34.4829 28.0926 35.3776 26.9889 35.3776H21.2356C20.7058 35.3762 20.1981 35.1658 19.8226 34.7921L18.7024 33.6719L12.4143 27.3838H17.5822L20.4081 30.2098C21.1592 30.9569 22.1747 31.3777 23.2341 31.3807ZM21.9304 16.3925H15.9975C15.4458 16.3919 14.9988 15.9449 14.9983 15.3933V9.46C18.6185 9.92178 21.4687 12.7723 21.9304 16.3925ZM6.00918 17.6185C5.89311 13.5051 8.91739 9.97524 12.9998 9.45881V15.3932C13.0016 17.048 14.3426 18.389 15.9974 18.3908H21.9312C21.4156 22.4737 17.8852 25.4986 13.7716 25.3819C9.55525 25.2154 6.17537 21.8351 6.00918 17.6185ZM4.00691 39.977V28.7793C4.00763 28.0089 4.63191 27.3846 5.40227 27.3839H9.00299V41.373H5.40227C4.6318 41.3721 4.00739 40.7476 4.00691 39.977ZM11.0014 41.1988V28.7968L16.9968 34.7921V41.1988H11.0014ZM19.1552 57.9548C20.0569 55.1606 24.651 52.9587 29.9867 52.9587C35.3224 52.9587 39.9164 55.1606 40.8181 57.9548H19.1552Z" fill="#034B47"></path><path d="M9.62273 48.2877C9.6794 48.3165 9.74011 48.3365 9.80273 48.3472C9.86868 48.3584 9.93535 48.3652 10.0023 48.3672C10.2668 48.3635 10.5202 48.2601 10.7117 48.0775C10.954 47.8439 11.0605 47.5027 10.9938 47.1728C10.9271 46.8429 10.6965 46.5699 10.3824 46.4489C10.2621 46.3976 10.133 46.3704 10.0023 46.3689C9.59821 46.3704 9.23452 46.6143 9.07964 46.9875C8.92476 47.3607 9.00868 47.7903 9.29285 48.0776L9.44261 48.1976C9.49833 48.2355 9.55892 48.2658 9.62273 48.2877Z" fill="#42F4FF"></path><defs><linearGradient id="paint0_linear_82_1624" x1="13.254" y1="3.43877" x2="-14.9739" y2="42.8505" gradientUnits="userSpaceOnUse"><stop offset="0.000580659" stop-color="#E3E7F2"></stop><stop offset="1" stop-color="#D0D8EE"></stop></linearGradient><linearGradient id="paint1_linear_82_1624" x1="134.775" y1="54.0067" x2="22.0669" y2="76.7588" gradientUnits="userSpaceOnUse"><stop offset="0.000580659" stop-color="#E3E7F2"></stop><stop offset="1" stop-color="#D0D8EE"></stop></linearGradient><linearGradient id="paint2_linear_82_1624" x1="121.22" y1="26.47" x2="17.1094" y2="58.2676" gradientUnits="userSpaceOnUse"><stop offset="0.000580659" stop-color="#E3E7F2"></stop><stop offset="1" stop-color="#D0D8EE"></stop></linearGradient><linearGradient id="paint3_linear_82_1624" x1="23.1748" y1="18.1502" x2="-8.27808" y2="58.4255" gradientUnits="userSpaceOnUse"><stop offset="0.000580659" stop-color="#E3E7F2"></stop><stop offset="1" stop-color="#D0D8EE"></stop></linearGradient><linearGradient id="paint4_linear_82_1624" x1="24.3105" y1="3.66984" x2="-6.69317" y2="41.1203" gradientUnits="userSpaceOnUse"><stop offset="0.000580659" stop-color="#E3E7F2"></stop><stop offset="1" stop-color="#D0D8EE"></stop></linearGradient><linearGradient id="paint5_linear_82_1624" x1="118.96" y1="1.85596" x2="36.3976" y2="30.2296" gradientUnits="userSpaceOnUse"><stop offset="0.000580659" stop-color="#E3F0F2"></stop><stop offset="1" stop-color="#D0D8EE"></stop></linearGradient><linearGradient id="paint6_linear_82_1624" x1="104.744" y1="-17.5604" x2="4.92689" y2="43.4113" gradientUnits="userSpaceOnUse"><stop offset="0.000580659" stop-color="#E3F2EF"></stop><stop offset="1" stop-color="#D0D8EE"></stop></linearGradient></defs></svg>