<svg xmlns="http://www.w3.org/2000/svg" width="80" height="80" viewBox="0 0 80 80" fill="none"><path d="M51.0637 39.1489C51.0637 33.5103 46.473 28.9362 40.851 28.9362C35.2289 28.9362 30.6382 33.5103 30.6382 39.1489C30.6382 44.7876 35.2289 49.3617 40.851 49.3617C46.473 49.3617 51.0637 44.7876 51.0637 39.1489Z" fill="#B87BFF"></path><path d="M40.8512 45.3697C37.4247 45.3697 34.6304 42.5753 34.6304 39.1489C34.6304 35.7225 37.4247 32.9281 40.8512 32.9281C44.2776 32.9281 47.072 35.7225 47.072 39.1489C47.072 42.5753 44.2776 45.3697 40.8512 45.3697Z" fill="#0C0C0C"></path><path d="M25.532 37.4468C24.5958 37.4468 23.8298 38.2127 23.8298 39.1489C23.8298 40.0851 24.5958 40.851 25.532 40.851C26.4681 40.851 27.2341 40.0851 27.2341 39.1489C27.2341 38.2127 26.4681 37.4468 25.532 37.4468Z" fill="#B87BFF"></path><path d="M18.7234 39.1489C18.7234 40.0851 19.4893 40.851 20.4255 40.851C21.3617 40.851 22.1276 40.0851 22.1276 39.1489C22.1276 38.2127 21.3617 37.4468 20.4255 37.4468C19.4893 37.4468 18.7234 38.2127 18.7234 39.1489Z" fill="#B87BFF"></path><path d="M15.3191 40C15.3191 35.7812 11.8745 32.3405 7.65092 32.3405C3.42733 32.3405 0 35.7812 0 40C0 44.2188 3.44464 47.6596 7.66823 47.6596C11.8918 47.6596 15.3191 44.2188 15.3191 40ZM7.66823 43.5099C5.72953 43.5099 4.15435 41.9365 4.15435 40C4.15435 38.0635 5.72953 36.4901 7.66823 36.4901C9.60692 36.4901 11.1821 38.0635 11.1821 40C11.1821 41.9365 9.58961 43.5099 7.66823 43.5099Z" fill="#B87BFF"></path><path d="M59.5745 41.2542C60.7372 41.2542 61.6798 40.3117 61.6798 39.149C61.6798 37.9863 60.7372 37.0437 59.5745 37.0437C58.4118 37.0437 57.4692 37.9863 57.4692 39.149C57.4692 40.3117 58.4118 41.2542 59.5745 41.2542Z" fill="#B87BFF"></path><path d="M54.468 40.851C55.4042 40.851 56.1701 40.0851 56.1701 39.1489C56.1701 38.2127 55.4042 37.4468 54.468 37.4468C53.5318 37.4468 52.7659 38.2127 52.7659 39.1489C52.7659 40.0851 53.5318 40.851 54.468 40.851Z" fill="#B87BFF"></path><path d="M72.3405 32.3405C68.1217 32.3405 64.6809 35.7812 64.6809 40C64.6809 44.2188 68.1217 47.6596 72.3405 47.6596C76.5593 47.6596 80.0001 44.2188 80.0001 40C80.0001 35.7812 76.5593 32.3405 72.3405 32.3405ZM72.3405 43.5099C70.404 43.5099 68.8306 41.9365 68.8306 40C68.8306 38.0635 70.404 36.4901 72.3405 36.4901C74.277 36.4901 75.8504 38.0635 75.8504 40C75.8504 41.9365 74.277 43.5099 72.3405 43.5099Z" fill="#B87BFF"></path><path d="M40.8511 52.7659C39.9149 52.7659 39.1489 53.5319 39.1489 54.4681C39.1489 55.4042 39.9149 56.1702 40.8511 56.1702C41.7872 56.1702 42.5532 55.4042 42.5532 54.4681C42.5532 53.5319 41.7872 52.7659 40.8511 52.7659Z" fill="#B87BFF"></path><path d="M40.8511 57.8723C39.9149 57.8723 39.1489 58.6383 39.1489 59.5744C39.1489 60.5106 39.9149 61.2766 40.8511 61.2766C41.7872 61.2766 42.5532 60.5106 42.5532 59.5744C42.5532 58.6383 41.7872 57.8723 40.8511 57.8723Z" fill="#B87BFF"></path><path d="M39.9999 64.6808C35.7811 64.6808 32.3403 68.1255 32.3403 72.3491C32.3403 76.5727 35.7811 80 39.9999 80C44.2187 80 47.6595 76.5554 47.6595 72.3318C47.6595 68.1082 44.2187 64.6808 39.9999 64.6808ZM39.9999 75.8457C38.0634 75.8457 36.49 74.2705 36.49 72.3318C36.49 70.3931 38.0634 68.8179 39.9999 68.8179C41.9364 68.8179 43.5098 70.3931 43.5098 72.3318C43.5098 74.2705 41.9364 75.8457 39.9999 75.8457Z" fill="#B87BFF"></path><path d="M40.8511 27.234C41.7872 27.234 42.5532 26.4681 42.5532 25.5319C42.5532 24.5957 41.7872 23.8298 40.8511 23.8298C39.9149 23.8298 39.1489 24.5957 39.1489 25.5319C39.1489 26.4681 39.9149 27.234 40.8511 27.234Z" fill="#B87BFF"></path><path d="M40.8511 22.5308C42.0138 22.5308 42.9564 21.5882 42.9564 20.4255C42.9564 19.2628 42.0138 18.3203 40.8511 18.3203C39.6884 18.3203 38.7458 19.2628 38.7458 20.4255C38.7458 21.5882 39.6884 22.5308 40.8511 22.5308Z" fill="#B87BFF"></path><path d="M39.9999 15.3191C44.2187 15.3191 47.6595 11.8745 47.6595 7.65092C47.6595 3.42733 44.2187 0 39.9999 0C35.7811 0 32.3403 3.44464 32.3403 7.66823C32.3403 11.8918 35.7811 15.3191 39.9999 15.3191ZM39.9999 4.15435C41.9364 4.15435 43.5098 5.72953 43.5098 7.66823C43.5098 9.60692 41.9364 11.1821 39.9999 11.1821C38.0634 11.1821 36.49 9.60692 36.49 7.66823C36.49 5.72953 38.0634 4.15435 39.9999 4.15435Z" fill="#B87BFF"></path><path d="M29.4352 48.1585C28.77 48.8238 28.77 49.8996 29.4352 50.5648C30.1005 51.2301 31.1763 51.2301 31.8416 50.5648C32.5069 49.8996 32.5069 48.8238 31.8416 48.1585C31.1621 47.4932 30.0864 47.4932 29.4352 48.1585Z" fill="#B87BFF"></path><path d="M25.532 56.5733C26.6947 56.5733 27.6373 55.6308 27.6373 54.4681C27.6373 53.3054 26.6947 52.3628 25.532 52.3628C24.3693 52.3628 23.4268 53.3054 23.4268 54.4681C23.4268 55.6308 24.3693 56.5733 25.532 56.5733Z" fill="#B87BFF"></path><path d="M12.4573 56.7017C9.46442 59.6971 9.46442 64.5452 12.4573 67.5407C15.4502 70.5361 20.2942 70.5361 23.2871 67.5407C26.28 64.5452 26.28 59.6971 23.2871 56.7017C20.2942 53.7235 15.4329 53.7235 12.4573 56.7017ZM20.3461 64.6145C18.9794 65.9823 16.765 65.9823 15.3983 64.6145C14.0316 63.2466 14.0316 61.0303 15.3983 59.6625C16.765 58.2946 18.9794 58.2946 20.3461 59.6625C21.7128 61.013 21.7128 63.2466 20.3461 64.6145Z" fill="#B87BFF"></path><path d="M54.4681 27.6372C55.6308 27.6372 56.5733 26.6946 56.5733 25.5319C56.5733 24.3692 55.6308 23.4266 54.4681 23.4266C53.3054 23.4266 52.3628 24.3692 52.3628 25.5319C52.3628 26.6946 53.3054 27.6372 54.4681 27.6372Z" fill="#B87BFF"></path><path d="M49.3616 32.7435C50.5243 32.7435 51.4669 31.801 51.4669 30.6383C51.4669 29.4756 50.5243 28.533 49.3616 28.533C48.1989 28.533 47.2563 29.4756 47.2563 30.6383C47.2563 31.801 48.1989 32.7435 49.3616 32.7435Z" fill="#B87BFF"></path><path d="M67.5425 23.2928C70.5354 20.2986 70.5354 15.4526 67.5425 12.4584C64.5496 9.46423 59.7056 9.46423 56.7127 12.4584C53.7198 15.4526 53.7198 20.2986 56.7127 23.2928C59.7056 26.2869 64.5669 26.2696 67.5425 23.2928ZM59.6537 15.3833C61.0204 14.0161 63.2348 14.0161 64.6015 15.3833C65.9682 16.7506 65.9682 18.9659 64.6015 20.3332C63.2348 21.7005 61.0204 21.7005 59.6537 20.3332C58.287 18.9833 58.287 16.7506 59.6537 15.3833Z" fill="#B87BFF"></path><path d="M54.4681 56.5733C55.6308 56.5733 56.5733 55.6308 56.5733 54.4681C56.5733 53.3054 55.6308 52.3628 54.4681 52.3628C53.3054 52.3628 52.3628 53.3054 52.3628 54.4681C52.3628 55.6308 53.3054 56.5733 54.4681 56.5733Z" fill="#B87BFF"></path><path d="M48.1586 48.1585C47.4933 48.8238 47.4933 49.8996 48.1586 50.5648C48.8239 51.2301 49.8997 51.2301 50.565 50.5648C51.2303 49.8996 51.2303 48.8238 50.565 48.1585C49.8997 47.4932 48.8239 47.4932 48.1586 48.1585Z" fill="#B87BFF"></path><path d="M56.7127 56.7017C53.7198 59.6971 53.7198 64.5452 56.7127 67.5407C59.7056 70.5361 64.5496 70.5361 67.5425 67.5407C70.5354 64.5452 70.5354 59.6971 67.5425 56.7017C64.5669 53.7235 59.7056 53.7235 56.7127 56.7017ZM64.6188 64.6145C63.2521 65.9823 61.0377 65.9823 59.671 64.6145C58.3043 63.2466 58.3043 61.0303 59.671 59.6625C61.0377 58.2946 63.2521 58.2946 64.6188 59.6625C65.9855 61.013 65.9855 63.2466 64.6188 64.6145Z" fill="#B87BFF"></path><path d="M30.6382 32.7435C31.8009 32.7435 32.7435 31.801 32.7435 30.6383C32.7435 29.4756 31.8009 28.533 30.6382 28.533C29.4755 28.533 28.533 29.4756 28.533 30.6383C28.533 31.801 29.4755 32.7435 30.6382 32.7435Z" fill="#B87BFF"></path><path d="M25.532 27.6372C26.6947 27.6372 27.6373 26.6946 27.6373 25.5319C27.6373 24.3692 26.6947 23.4266 25.532 23.4266C24.3693 23.4266 23.4268 24.3692 23.4268 25.5319C23.4268 26.6946 24.3693 27.6372 25.532 27.6372Z" fill="#B87BFF"></path><path d="M23.2871 23.2983C26.28 20.3029 26.28 15.4548 23.2871 12.4593C20.2942 9.46391 15.4502 9.46391 12.4573 12.4593C9.46442 15.4548 9.46442 20.3029 12.4573 23.2983C15.4329 26.2765 20.2942 26.2765 23.2871 23.2983ZM15.381 15.3855C16.7477 14.0177 18.9621 14.0177 20.3288 15.3855C21.6955 16.7534 21.6955 18.9697 20.3288 20.3375C18.9621 21.7054 16.7477 21.7054 15.381 20.3375C14.0143 18.987 14.0143 16.7534 15.381 15.3855Z" fill="#B87BFF"></path></svg>