<svg xmlns="http://www.w3.org/2000/svg" width="80" height="80" viewBox="0 0 80 80" fill="none"><path d="M43.0397 45.8909C43.4168 45.889 43.7934 45.8648 44.1675 45.8187C40.5078 45.2747 37.6691 41.4151 37.6691 36.7272C37.6691 32.0394 40.5078 28.1798 44.1675 27.6358C40.7005 27.2261 37.2863 28.725 35.3031 31.5279C33.3198 34.3307 33.0947 37.9749 34.7186 40.9896C36.3425 44.0043 39.5471 45.8919 43.0397 45.8909Z" fill="#B87BFF"></path><path d="M71.9439 14.4C75.6515 14.4 78.6572 11.4695 78.6572 7.85459C78.6572 4.23968 75.6515 1.3092 71.9439 1.3092C68.2363 1.3092 65.2307 4.23968 65.2307 7.85459C65.2307 11.4695 68.2363 14.4 71.9439 14.4Z" fill="#0C0C0C"></path><path d="M43.0396 78.6908C46.7472 78.6908 49.7529 75.7603 49.7529 72.1454C49.7529 68.5304 46.7472 65.6 43.0396 65.6C39.332 65.6 36.3264 68.5304 36.3264 72.1454C36.3264 75.7603 39.332 78.6908 43.0396 78.6908Z" fill="#0C0C0C"></path><path d="M69.93 13.3092C72.5254 13.3092 74.6294 10.6229 74.6294 7.3092C74.6294 3.9955 72.5254 1.3092 69.93 1.3092C67.3347 1.3092 65.2307 3.9955 65.2307 7.3092C65.2307 10.6229 67.3347 13.3092 69.93 13.3092Z" fill="#0C0C0C"></path><path d="M41.0256 78.6908C43.621 78.6908 45.7249 75.7603 45.7249 72.1454C45.7249 68.5304 43.621 65.6 41.0256 65.6C38.4303 65.6 36.3263 68.5304 36.3263 72.1454C36.3263 75.7603 38.4303 78.6908 41.0256 78.6908Z" fill="#0C0C0C"></path><path d="M8.05599 76.0726C11.7636 76.0726 14.7692 73.1421 14.7692 69.5272C14.7692 65.9123 11.7636 62.9818 8.05599 62.9818C4.34838 62.9818 1.34277 65.9123 1.34277 69.5272C1.34277 73.1421 4.34838 76.0726 8.05599 76.0726Z" fill="#0C0C0C"></path><path d="M17.4544 15.7091C19.679 15.7091 21.4824 13.9508 21.4824 11.7818C21.4824 9.6129 19.679 7.85461 17.4544 7.85461C15.2299 7.85461 13.4265 9.6129 13.4265 11.7818C13.4265 13.9508 15.2299 15.7091 17.4544 15.7091Z" fill="#0C0C0C"></path><path d="M10.1445 72.0727C12.7399 72.0727 14.8438 69.1422 14.8438 65.5273C14.8438 61.9123 12.7399 58.9819 10.1445 58.9819C7.54915 58.9819 5.44519 61.9123 5.44519 65.5273C5.44519 69.1422 7.54915 72.0727 10.1445 72.0727Z" fill="#0C0C0C"></path><path d="M12.1585 72.0728C12.5562 72.0683 12.9527 72.0293 13.3433 71.9565C11.145 71.409 9.47325 68.7467 9.47325 65.5274C9.47325 62.3081 11.1449 59.6458 13.3433 59.0983C10.8436 58.6586 8.30354 59.6334 6.7819 61.6163C5.26027 63.5994 5.01825 66.2503 6.15666 68.4643C7.29508 70.6783 9.61835 72.075 12.1585 72.0728Z" fill="#B87BFF"></path><path d="M43.1976 74.6909C43.5952 74.6864 43.9917 74.6474 44.3823 74.5746C42.1841 74.0271 40.5123 71.3648 40.5123 68.1455C40.5123 64.9262 42.1839 62.2639 44.3823 61.7164C41.8826 61.2767 39.3426 62.2515 37.821 64.2344C36.2993 66.2175 36.0573 68.8684 37.1957 71.0824C38.3341 73.2964 40.6576 74.6933 43.1976 74.6909Z" fill="#B87BFF"></path><path d="M70.0508 18.4C70.4484 18.3955 70.8449 18.3565 71.2355 18.2837C69.0371 17.7362 67.3655 15.0739 67.3655 11.8546C67.3655 8.63528 69.0371 5.97297 71.2355 5.42551C68.7358 4.98578 66.1958 5.96059 64.6741 7.94355C63.1525 9.92664 62.9105 12.5776 64.0489 14.7916C65.1871 17.0054 67.5107 18.4024 70.0508 18.4Z" fill="#B87BFF"></path><path d="M66.5735 63.6C68.798 63.6 70.6014 61.8417 70.6014 59.6728C70.6014 57.5038 68.798 55.7455 66.5735 55.7455C64.3489 55.7455 62.5455 57.5038 62.5455 59.6728C62.5455 61.8417 64.3489 63.6 66.5735 63.6Z" fill="#0C0C0C"></path><path d="M71.944 15.7091C67.4947 15.7091 63.8879 12.1925 63.8879 7.85447C63.8879 3.51647 67.4949 0 71.944 0C76.393 0 80 3.51661 80 7.85461C79.9951 12.1905 76.3912 15.7043 71.944 15.7091ZM71.944 2.61816C68.9778 2.61816 66.5734 4.96252 66.5734 7.85447C66.5734 10.7464 68.9778 13.0908 71.944 13.0908C74.9101 13.0908 77.3145 10.7464 77.3145 7.85447C77.3115 4.96392 74.9088 2.62125 71.944 2.61816Z" fill="#B87BFF"></path><path d="M43.0397 80C38.5904 80 34.9836 76.4834 34.9836 72.1454C34.9836 67.8074 38.5904 64.2908 43.0397 64.2908C47.4889 64.2908 51.0957 67.8074 51.0957 72.1454C51.0906 76.4814 47.4867 79.9952 43.0397 80ZM43.0397 66.9091C40.0735 66.9091 37.6691 69.2534 37.6691 72.1454C37.6691 75.0373 40.0735 77.3817 43.0397 77.3817C46.0058 77.3817 48.4102 75.0373 48.4102 72.1454C48.4071 69.2547 46.0045 66.9122 43.0397 66.9091Z" fill="#B87BFF"></path><path d="M8.05601 77.3818C3.60678 77.3818 0 73.8652 0 69.5272C0 65.1892 3.60678 61.6726 8.05601 61.6726C12.5052 61.6726 16.112 65.1892 16.112 69.5272C16.107 73.8632 12.5031 77.377 8.05601 77.3818ZM8.05601 64.2909C5.0899 64.2909 2.68543 66.6353 2.68543 69.5272C2.68543 72.4192 5.0899 74.7635 8.05601 74.7635C11.0221 74.7635 13.4266 72.4192 13.4266 69.5272C13.4234 66.6365 11.0208 64.294 8.05601 64.2909Z" fill="#B87BFF"></path><path d="M17.4546 17.0182C14.4885 17.0182 12.084 14.6738 12.084 11.7818C12.084 8.88989 14.4885 6.54553 17.4546 6.54553C20.4207 6.54553 22.8251 8.88989 22.8251 11.7818C22.8221 14.6725 20.4194 17.0151 17.4546 17.0182ZM17.4546 9.16369C15.9714 9.16369 14.7693 10.3359 14.7693 11.7818C14.7693 13.2278 15.9716 14.4 17.4546 14.4C18.9375 14.4 20.1398 13.2278 20.1398 11.7818C20.1383 10.3365 18.937 9.16524 17.4546 9.16369Z" fill="#B87BFF"></path><path d="M66.5735 64.9091C63.6074 64.9091 61.2029 62.5647 61.2029 59.6728C61.2029 56.7808 63.6074 54.4365 66.5735 54.4365C69.5396 54.4365 71.944 56.7808 71.944 59.6728C71.941 62.5635 69.5383 64.906 66.5735 64.9091ZM66.5735 57.0546C65.0903 57.0546 63.8882 58.2269 63.8882 59.6728C63.8882 61.1188 65.0905 62.2909 66.5735 62.2909C68.0564 62.2909 69.2587 61.1187 69.2587 59.6728C69.2572 58.2274 68.0559 57.0562 66.5735 57.0546Z" fill="#B87BFF"></path><path d="M43.0397 66.9091C42.6836 66.9091 42.342 66.7713 42.0902 66.5257C41.8384 66.2802 41.6969 65.9472 41.697 65.6V49.8909C41.697 49.168 42.2982 48.5818 43.0397 48.5818C43.7812 48.5818 44.3823 49.168 44.3823 49.8909V65.6C44.3825 65.9472 44.241 66.2802 43.9891 66.5257C43.7373 66.7713 43.3958 66.9091 43.0397 66.9091Z" fill="#B87BFF"></path><path d="M51.8042 29.491C51.2611 29.491 50.7717 29.1719 50.5639 28.6828C50.3561 28.1937 50.471 27.6308 50.8548 27.2563L65.6241 12.8563C65.9621 12.5206 66.459 12.3877 66.9254 12.5081C67.3919 12.6285 67.7562 12.9837 67.8797 13.4385C68.0031 13.8932 67.8668 14.3777 67.5226 14.7073L52.7533 29.1073C52.5019 29.3533 52.1603 29.4914 51.8042 29.491Z" fill="#B87BFF"></path><path d="M13.4266 66.9091C12.8836 66.9091 12.3942 66.59 12.1863 66.1009C11.9785 65.6118 12.0935 65.0489 12.4773 64.6744L31.2744 46.3472C31.8 45.8439 32.6435 45.8477 33.1644 46.3555C33.6854 46.8634 33.6891 47.6857 33.1729 48.1982L14.3758 66.5256C14.1244 66.7714 13.7827 66.9095 13.4266 66.9091Z" fill="#B87BFF"></path><path d="M32.2237 27.4909C31.8676 27.4913 31.5259 27.3532 31.2744 27.1073L19.1904 15.3254C18.6742 14.813 18.6781 13.9906 19.1989 13.4827C19.7199 12.9747 20.5632 12.9711 21.0889 13.4744L33.173 25.2562C33.557 25.6306 33.6718 26.1936 33.4639 26.6827C33.2561 27.1718 32.7667 27.4909 32.2237 27.4909Z" fill="#B87BFF"></path><path d="M63.8881 58.3637C63.532 58.3641 63.1903 58.226 62.9388 57.9801L50.8549 46.1982C50.3387 45.6858 50.3425 44.8634 50.8634 44.3555C51.3843 43.8475 52.2276 43.8439 52.7534 44.3472L64.8373 56.129C65.2212 56.5034 65.3361 57.0664 65.1282 57.5555C64.9205 58.0446 64.431 58.3637 63.8881 58.3637Z" fill="#B87BFF"></path><path d="M43.0761 23.5C34.8629 23.5004 28.2051 29.9921 28.2051 38C28.2051 46.0082 34.8634 52.5 43.0769 52.5C51.2904 52.5 57.9487 46.0082 57.9487 38.0017C57.9393 29.9964 51.286 23.509 43.0761 23.5Z" fill="#B87BFF" stroke="#B87BFF" stroke-width="1.5"></path></svg>