<svg xmlns="http://www.w3.org/2000/svg" width="60" height="60" viewBox="0 0 60 60" fill="none"><path d="M36.8937 48.5754L39.4807 51.3002C38.3486 51.7388 37.1813 52.086 35.9905 52.3382V57.8874C35.9886 58.438 35.53 58.8839 34.9637 58.8852H26.7512C26.185 58.8839 25.7263 58.438 25.7244 57.8874V52.3382C23.0501 51.7676 20.4993 50.7437 18.1896 49.3142L17.0707 50.402L14.1651 53.2264C13.9739 53.4178 13.7112 53.5261 13.4363 53.5261C13.1618 53.5261 12.8992 53.4178 12.7074 53.2264L11.8968 52.4378L6.90757 47.5876C6.71067 47.4012 6.5993 47.1458 6.5993 46.879C6.5993 46.6118 6.71067 46.3564 6.90757 46.1704L10.9316 42.2577C9.46069 40.0122 8.40805 37.5323 7.82111 34.9322H2.11336C1.5471 34.9304 1.08845 34.4845 1.08704 33.9339V25.9496C1.08845 25.3991 1.5471 24.9532 2.11336 24.9513H7.82111C8.40805 22.3513 9.46069 19.8713 10.9316 17.6258L6.90757 13.7131C6.71067 13.5272 6.5993 13.2718 6.5993 13.0045C6.5993 12.7377 6.71067 12.4823 6.90757 12.2959L12.7074 6.65714C12.8992 6.46571 13.1618 6.35743 13.4363 6.35743C13.7112 6.35743 13.9739 6.46571 14.1651 6.65714L18.1896 10.5694C20.4993 9.1398 23.0501 8.11594 25.7244 7.54531V1.99611C25.7263 1.44557 26.185 0.999662 26.7512 0.998291H34.9637C35.53 0.999662 35.9886 1.44557 35.9905 1.99611V7.54531C37.1813 7.7975 38.3486 8.14473 39.4807 8.58333L37.0168 11.4178L37.4069 19.0229L30.6625 28.6342L36.9346 41.0004L36.8937 48.5754Z" fill="#CAFCF6"></path><path d="M33.8138 48.5754L36.4007 51.3002C35.2687 51.7388 34.1014 52.086 32.9106 52.3382V57.8874C32.9092 58.438 32.4505 58.8839 31.8843 58.8852H26.7512C26.185 58.8839 25.7263 58.438 25.7244 57.8874V52.3382C23.0501 51.7676 20.4993 50.7437 18.1896 49.3142L17.0707 50.402C16.3931 50.0726 14.042 54.2845 13.4057 53.8953L11.8968 52.4378L6.90757 47.5876C6.71067 47.4012 6.5993 47.1458 6.5993 46.879C6.5993 46.6118 6.71067 46.3564 6.90757 46.1704L10.9316 42.2577C9.46069 40.0122 8.40805 37.5323 7.82111 34.9322H2.11336C1.5471 34.9304 1.08845 34.4845 1.08704 33.9339V25.9496C1.08845 25.3991 1.5471 24.9532 2.11336 24.9513H7.82111C8.40805 22.3513 9.46069 19.8713 10.9316 17.6258L6.90757 13.7131C6.71067 13.5272 6.5993 13.2718 6.5993 13.0045C6.5993 12.7377 6.71067 12.4823 6.90757 12.2959L11.8968 7.44571L13.4057 5.98828C14.042 5.59902 16.3931 9.81095 17.0707 9.48154L18.1896 10.5694C20.4993 9.1398 23.0501 8.11594 25.7244 7.54531V1.99611C25.7263 1.44557 26.185 0.999662 26.7512 0.998291H31.8843C32.4505 0.999662 32.9092 1.44557 32.9106 1.99611V7.54531C34.1014 7.7975 35.2687 8.14473 36.4007 8.58333L33.9374 11.4178L34.3274 19.0229L27.5825 28.6342L33.8551 41.0004L33.8138 48.5754Z" fill="url(#paint0_linear_82_1691)"></path><path d="M37.4058 19.712L31.5414 29.6924L37.4058 40.6113V45.821C35.4053 46.5447 33.284 46.9134 31.145 46.9089C30.6291 46.9106 30.1137 46.8873 29.6007 46.8389C25.3666 46.4921 21.4058 44.6953 18.4457 41.779C15.2123 38.6152 13.4034 34.3662 13.4058 29.9419C13.4029 21.1397 20.4423 13.7996 29.6112 13.0448H29.6422C30.1414 12.9959 30.6429 12.9726 31.145 12.9747C33.284 12.9703 35.4053 13.339 37.4058 14.0627V19.712Z" fill="#034B47"></path><path d="M35.6915 19.7119L29.4293 29.6923L35.6915 40.6111V45.8209C34.0893 46.3691 32.4086 46.7118 30.6994 46.8388C26.1781 46.492 21.9485 44.6951 18.7876 41.7789C15.3349 38.615 13.4032 34.3661 13.4058 29.9417C13.4027 21.1396 20.9197 13.7994 30.7106 13.0447H30.7437C32.4372 13.1813 34.1016 13.5235 35.6915 14.0626V19.7119Z" fill="url(#paint1_linear_82_1691)"></path><path d="M55.4954 6.98643C55.4954 8.04501 55.0631 9.06064 54.2929 9.80946C53.5227 10.5583 52.478 10.9791 51.3892 10.9786C50.8601 10.9827 50.3361 10.8804 49.8492 10.6794C48.2985 10.0731 47.283 8.61108 47.283 6.98643C47.283 5.36133 48.2985 3.89979 49.8492 3.29351C50.3361 3.09203 50.8601 2.99015 51.3892 2.99426C52.478 2.9938 53.5227 3.41413 54.2929 4.16295C55.0631 4.91176 55.4954 5.9274 55.4954 6.98643Z" fill="#CAFCF6"></path><path d="M50.3624 18.963C50.3628 20.022 49.93 21.0377 49.1598 21.7865C48.3901 22.5348 47.3454 22.9556 46.2561 22.9552C45.727 22.9593 45.203 22.8574 44.7162 22.6559C43.1659 22.0496 42.1499 20.5881 42.1499 18.963C42.1499 17.3383 43.1659 15.8763 44.7162 15.2701C45.203 15.0686 45.727 14.9667 46.2561 14.9708C47.3454 14.9704 48.3901 15.3911 49.1598 16.14C49.93 16.8883 50.3628 17.904 50.3624 18.963Z" fill="#CAFCF6"></path><path d="M57.5485 29.9418C57.549 31.0008 57.1162 32.0164 56.346 32.7648C55.5758 33.5136 54.5311 33.9344 53.4423 33.9339C52.9132 33.938 52.3892 33.8362 51.9023 33.6347C50.3516 33.0284 49.3361 31.5664 49.3361 29.9418C49.3361 28.3171 50.3516 26.8551 51.9023 26.2488C52.3892 26.0474 52.9132 25.9455 53.4423 25.9496C54.5311 25.9491 55.5758 26.3699 56.346 27.1187C57.1162 27.8671 57.549 28.8827 57.5485 29.9418Z" fill="#CAFCF6"></path><path d="M50.3624 40.9205C50.3628 41.9796 49.93 42.9952 49.1598 43.7435C48.3901 44.4924 47.3454 44.9131 46.2561 44.9127C45.727 44.9168 45.203 44.8149 44.7162 44.6134C43.1659 44.0072 42.1499 42.5452 42.1499 40.9205C42.1499 39.2954 43.1659 37.8339 44.7162 37.2276C45.203 37.0261 45.727 36.9242 46.2561 36.9283C47.3454 36.9279 48.3901 37.3487 49.1598 38.097C49.93 38.8458 50.3628 39.8615 50.3624 40.9205Z" fill="#CAFCF6"></path><path d="M55.4954 52.8971C55.4954 53.9561 55.0631 54.9717 54.2929 55.7206C53.5227 56.4694 52.478 56.8897 51.3892 56.8892C50.8601 56.8934 50.3361 56.7915 49.8492 56.59C48.2985 55.9837 47.283 54.5222 47.283 52.8971C47.283 51.2724 48.2985 49.8104 49.8492 49.2042C50.3361 49.0031 50.8601 48.9008 51.3892 48.9049C52.478 48.9044 53.5227 49.3252 54.2929 50.074C55.0631 50.8229 55.4954 51.8385 55.4954 52.8971Z" fill="#CAFCF6"></path><path d="M52.4155 6.98662C52.4155 4.94713 51.2665 3.2937 49.8492 3.2937C48.4319 3.2937 47.283 4.94713 47.283 6.98662C47.283 9.02611 48.4319 10.6795 49.8492 10.6795C51.2665 10.6795 52.4155 9.02611 52.4155 6.98662Z" fill="#E8FCFB"></path><path d="M47.2829 18.9629C47.2829 16.9234 46.1335 15.27 44.7162 15.27C43.2989 15.27 42.1499 16.9234 42.1499 18.9629C42.1499 21.0024 43.2989 22.6559 44.7162 22.6559C46.1335 22.6559 47.2829 21.0024 47.2829 18.9629Z" fill="#E8FCFB"></path><path d="M54.4686 29.9417C54.4686 27.9022 53.3196 26.2488 51.9023 26.2488C50.485 26.2488 49.3361 27.9022 49.3361 29.9417C49.3361 31.9812 50.485 33.6346 51.9023 33.6346C53.3196 33.6346 54.4686 31.9812 54.4686 29.9417Z" fill="#E8FCFB"></path><path d="M47.2829 40.9205C47.2829 38.881 46.1335 37.2275 44.7162 37.2275C43.2989 37.2275 42.1499 38.881 42.1499 40.9205C42.1499 42.9599 43.2989 44.6134 44.7162 44.6134C46.1335 44.6134 47.2829 42.9599 47.2829 40.9205Z" fill="#E8FCFB"></path><path d="M52.4155 52.897C52.4155 50.8575 51.2665 49.2041 49.8492 49.2041C48.4319 49.2041 47.283 50.8575 47.283 52.897C47.283 54.9365 48.4319 56.5899 49.8492 56.5899C51.2665 56.5899 52.4155 54.9365 52.4155 52.897Z" fill="#E8FCFB"></path><path d="M34.9638 29.9418C34.9643 31.0008 34.5315 32.0164 33.7613 32.7648C32.9915 33.5136 31.9469 33.9344 30.8576 33.9339C30.3284 33.938 29.8045 33.8362 29.3176 33.6347C27.7673 33.0284 26.7513 31.5664 26.7513 29.9418C26.7513 28.3171 27.7673 26.8551 29.3176 26.2488C29.8045 26.0474 30.3284 25.9455 30.8576 25.9496C31.9469 25.9491 32.9915 26.3699 33.7613 27.1187C34.5315 27.8671 34.9643 28.8827 34.9638 29.9418Z" fill="#E8FCFB"></path><path d="M31.8844 29.9417C31.8844 27.9022 30.7349 26.2488 29.3176 26.2488C27.9003 26.2488 26.7513 27.9022 26.7513 29.9417C26.7513 31.9812 27.9003 33.6346 29.3176 33.6346C30.7349 33.6346 31.8844 31.9812 31.8844 29.9417Z" fill="#4EBCB9"></path><path d="M10.9011 24.9513C11.4876 22.3513 12.5407 19.8713 14.0115 17.6258L9.98708 13.7131C9.79018 13.5272 9.67928 13.2718 9.67928 13.0045C9.67928 12.7377 9.79018 12.4823 9.98708 12.2959L14.9763 7.44571L14.9975 7.42515C14.3259 6.56988 13.6925 5.8133 13.4058 5.98828L12.7249 6.64572C12.7197 6.65075 12.7131 6.65212 12.708 6.65714L11.8969 7.44571L6.90764 12.2959C6.71074 12.4823 6.59937 12.7377 6.59937 13.0045C6.59937 13.2718 6.71074 13.5272 6.90764 13.7131L10.9316 17.6258C9.46076 19.8713 8.40812 22.3513 7.82118 24.9513H10.9011Z" fill="#4EBCB9"></path><path d="M14.9763 52.4377L9.98708 47.5876C9.79018 47.4012 9.67928 47.1458 9.67928 46.8789C9.67928 46.6117 9.79018 46.3563 9.98708 46.1703L14.0115 42.2577C12.5407 40.0121 11.4876 37.5322 10.9011 34.9321H7.82118C8.40812 37.5322 9.46076 40.0121 10.9316 42.2577L6.90764 46.1703C6.71074 46.3563 6.59937 46.6117 6.59937 46.8789C6.59937 47.1458 6.71074 47.4012 6.90764 47.5876L11.8969 52.4377L12.7075 53.2263C12.7127 53.2313 12.7197 53.2327 12.7249 53.2377L13.4058 53.8952C13.6925 54.0702 14.3259 53.3131 14.997 52.4578L14.9763 52.4377Z" fill="#4EBCB9"></path><path d="M4.16648 33.934V25.9497C4.16836 25.3992 4.62701 24.9532 5.19327 24.9514H2.11336C1.5471 24.9532 1.08845 25.3992 1.08704 25.9497V33.934C1.08845 34.4846 1.5471 34.9305 2.11336 34.9323H5.19327C4.62701 34.9305 4.16836 34.4846 4.16648 33.934Z" fill="#4EBCB9"></path><path d="M10.2061 18.3316L6.37666 14.6085C6.24226 14.4842 6.11538 14.3522 5.99696 14.2133C5.4697 13.5453 5.43258 12.6266 5.90532 11.9207C5.98051 11.8092 6.06698 11.7051 6.16331 11.6096L6.32168 11.4547L11.9824 5.95117L13.434 7.36291L11.8964 8.85781L7.61868 13.0044L11.6577 16.9203L10.2061 18.3316Z" fill="#034B47"></path><path d="M7.30237 14.0968C6.90528 14.4901 6.90669 15.1202 7.30566 15.5117L10.2061 18.3315L11.6577 16.9198L8.75069 14.0936C8.55849 13.9071 8.29768 13.8025 8.02559 13.803C7.75397 13.8039 7.49363 13.9094 7.30237 14.0968Z" fill="#034B47"></path><path d="M13.4335 7.36291L11.9819 5.95117L9.7211 8.1492C9.31931 8.538 9.31743 9.16985 9.71734 9.56048C10.1172 9.95157 10.7672 9.95294 11.1694 9.56414L13.4335 7.36291Z" fill="#034B47"></path><path d="M6.81974 10.97C6.63035 11.16 6.52133 11.4122 6.51428 11.6768L6.53449 11.8677C6.54765 11.9372 6.56597 12.0057 6.58853 12.0724C6.6031 12.1364 6.6327 12.1962 6.675 12.247C6.71917 12.299 6.76757 12.347 6.82068 12.3904C7.02321 12.5572 7.27369 12.66 7.53779 12.6846C8.1017 12.6709 8.55518 12.23 8.56975 11.6823C8.56646 11.5507 8.53732 11.4209 8.48422 11.3003C8.43441 11.1788 8.3611 11.0678 8.26758 10.9741C8.07773 10.7836 7.81739 10.6758 7.54484 10.6753C7.27228 10.6744 7.011 10.7808 6.82021 10.97H6.81974Z" fill="#034B47"></path><path d="M18.1897 11.5676C17.9171 11.5676 17.6563 11.4625 17.4636 11.2752L13.4397 7.36299C13.0412 7.75636 12.3903 7.76185 11.9852 7.37487C11.5801 6.98744 11.5745 6.35467 11.973 5.96085C12.3555 5.57524 12.8837 5.35823 13.435 5.3596H13.4368C13.9881 5.35823 14.5167 5.57479 14.9007 5.95948L18.3443 9.30745C20.3269 8.16892 22.4665 7.31 24.6982 6.75672V1.99609C24.6996 0.894104 25.6178 0.00137063 26.7513 0H30.8575C31.4243 0 31.8843 0.446824 31.8843 0.998271C31.8843 1.54926 31.4243 1.99609 30.8575 1.99609H26.7513V7.54529C26.7513 8.0145 26.4153 8.4202 25.9444 8.52026C23.3866 9.06531 20.9482 10.0439 18.74 11.4118C18.5755 11.5137 18.3847 11.5676 18.1897 11.5676Z" fill="#034B47"></path><path d="M30.8575 59.8836H26.7513C25.6178 59.8822 24.6996 58.9895 24.6982 57.8875V53.1269C22.4665 52.5736 20.3269 51.7142 18.3443 50.5757L14.8917 53.9319C14.5087 54.312 13.9843 54.5258 13.4368 54.5236H13.4349C12.8837 54.5249 12.356 54.3079 11.973 53.9223L6.18159 48.2932C5.79061 47.9185 5.57162 47.4064 5.57303 46.8723C5.57491 46.3386 5.79719 45.8279 6.19052 45.455L9.63321 42.108C8.46215 40.18 7.57869 38.0998 7.00866 35.9301H2.11342C0.979953 35.9288 0.0617125 35.036 0.0603027 33.934V25.9497C0.0617125 24.8477 0.979953 23.955 2.11342 23.9536H7.00866C7.6473 21.523 8.67926 19.2067 10.0655 17.0909C10.2573 16.7802 10.6078 16.5952 10.9805 16.6075C11.3532 16.6198 11.6896 16.8277 11.8593 17.1503C12.0294 17.4733 12.0054 17.8603 11.7977 18.1609C10.3912 20.3077 9.38415 22.6789 8.82306 25.1652C8.72014 25.623 8.30332 25.9492 7.82117 25.9497H2.11342V33.934H7.82117C8.30332 33.934 8.72061 34.2607 8.82353 34.7185C9.38462 37.2048 10.3917 39.576 11.7982 41.7228C12.0562 42.1171 11.9979 42.6329 11.6577 42.9633L7.63367 46.8759L13.434 52.5211L17.4641 48.6089C17.8043 48.279 18.3339 48.2223 18.74 48.4718C20.9481 49.8397 23.3866 50.8183 25.9444 51.3629C26.4153 51.4634 26.7513 51.8691 26.7513 52.3383V57.8875H30.8575C31.4243 57.8875 31.8843 58.3343 31.8843 58.8853C31.8843 59.4368 31.4243 59.8836 30.8575 59.8836Z" fill="#034B47"></path><path d="M30.8576 47.907C20.6521 47.907 12.379 39.8637 12.379 29.9418C12.379 20.0198 20.6521 11.9766 30.8576 11.9766C31.4243 11.9766 31.8843 12.4234 31.8843 12.9748C31.8843 13.5258 31.4243 13.9726 30.8576 13.9726C21.7861 13.9726 14.4321 21.1223 14.4321 29.9418C14.4321 38.7613 21.7861 45.9109 30.8576 45.9109C31.4243 45.9109 31.8843 46.3578 31.8843 46.9088C31.8843 47.4602 31.4243 47.907 30.8576 47.907Z" fill="#034B47"></path><path d="M34.9637 59.8836H30.8575C30.2907 59.8836 29.8307 59.4367 29.8307 58.8853C29.8307 58.3343 30.2907 57.8875 30.8575 57.8875H34.9637V52.3383C34.9637 51.8704 35.2978 51.4652 35.7678 51.3642C36.9036 51.123 38.0168 50.7922 39.0972 50.3751C39.4388 50.2325 39.8331 50.2814 40.1278 50.5021C40.4219 50.7228 40.5709 51.0814 40.5164 51.4387C40.4619 51.7964 40.2128 52.0975 39.8651 52.2259C38.9374 52.5868 37.9858 52.8874 37.0168 53.1259V57.8875C37.0154 58.9895 36.0972 59.8822 34.9637 59.8836Z" fill="#034B47"></path><path d="M39.4807 9.58204C39.3491 9.58204 39.2184 9.55691 39.0967 9.50893C38.0164 9.09135 36.9031 8.76058 35.7673 8.51935C35.2978 8.41838 34.9637 8.01313 34.9637 7.54529V1.99609H30.8575C30.2907 1.99609 29.8307 1.54926 29.8307 0.998271C29.8307 0.446824 30.2907 0 30.8575 0H34.9637C36.0972 0.00137063 37.0154 0.894104 37.0168 1.99609V6.75764C37.9858 6.99612 38.9374 7.29675 39.8651 7.65814C40.3214 7.83632 40.5831 8.30461 40.4896 8.77428C40.3956 9.24349 39.9727 9.58249 39.4807 9.58204Z" fill="#034B47"></path><path d="M29.8307 46.9086C29.8307 46.3576 30.2153 45.9108 30.689 45.9108C32.3439 45.9154 33.9855 45.5686 35.5335 44.8878C35.975 44.6987 36.4649 44.9591 36.6318 45.4708C36.7988 45.9825 36.58 46.555 36.142 46.7542C34.3995 47.5208 32.5517 47.9114 30.689 47.9069C30.2153 47.9069 29.8307 47.46 29.8307 46.9086Z" fill="#034B47"></path><path d="M35.8302 15.061C35.7266 15.061 35.6235 15.0386 35.5266 14.9956C33.9804 14.3144 32.3408 13.9681 30.6879 13.9727C30.2148 13.9727 29.8307 13.5259 29.8307 12.9749C29.8307 12.4234 30.2148 11.9766 30.6879 11.9766C32.5484 11.972 34.3939 12.3627 36.1343 13.1293C36.5211 13.3002 36.7483 13.7685 36.6737 14.2427C36.5992 14.7165 36.2441 15.061 35.8302 15.061Z" fill="#034B47"></path><path d="M30.8575 34.9323C28.0229 34.9323 25.7245 32.6977 25.7245 29.9419C25.7245 27.186 28.0229 24.9514 30.8575 24.9514C33.6921 24.9514 35.9905 27.186 35.9905 29.9419C35.9873 32.6964 33.6907 34.9291 30.8575 34.9323ZM30.8575 26.9475C29.1568 26.9475 27.7776 28.2884 27.7776 29.9419C27.7776 31.5953 29.1568 32.9362 30.8575 32.9362C32.5582 32.9362 33.9374 31.5953 33.9374 29.9419C33.9355 28.2889 32.5577 26.9493 30.8575 26.9475Z" fill="#034B47"></path><path d="M51.3891 11.9765C48.5541 11.9765 46.2561 9.74241 46.2561 6.98654C46.2561 4.23021 48.5541 1.99609 51.3891 1.99609C54.2237 1.99609 56.5217 4.23021 56.5217 6.98654C56.5184 9.74104 54.2223 11.9733 51.3891 11.9765ZM51.3891 3.99218C49.688 3.99218 48.3092 5.33265 48.3092 6.98654C48.3092 8.63997 49.688 9.98044 51.3891 9.98044C53.0898 9.98044 54.4686 8.63997 54.4686 6.98654C54.4667 5.33356 53.0889 3.99401 51.3891 3.99218Z" fill="#034B47"></path><path d="M46.2562 23.9535C43.4216 23.9535 41.1232 21.7194 41.1232 18.9631C41.1232 16.2072 43.4216 13.9727 46.2562 13.9727C49.0908 13.9727 51.3892 16.2072 51.3892 18.9631C51.3859 21.7181 49.0894 23.9503 46.2562 23.9535ZM46.2562 15.9692C44.5555 15.9692 43.1763 17.3097 43.1763 18.9631C43.1763 20.617 44.5555 21.9575 46.2562 21.9575C47.9569 21.9575 49.3361 20.617 49.3361 18.9631C49.3342 17.3101 47.9564 15.971 46.2562 15.9692Z" fill="#034B47"></path><path d="M53.4422 34.9323C50.6072 34.9323 48.3092 32.6977 48.3092 29.9419C48.3092 27.186 50.6072 24.9514 53.4422 24.9514C56.2768 24.9514 58.5748 27.186 58.5748 29.9419C58.5715 32.6964 56.2754 34.9291 53.4422 34.9323ZM53.4422 26.9475C51.7411 26.9475 50.3623 28.2884 50.3623 29.9419C50.3623 31.5953 51.7411 32.9362 53.4422 32.9362C55.1429 32.9362 56.5217 31.5953 56.5217 29.9419C56.5198 28.2889 55.1424 26.9493 53.4422 26.9475Z" fill="#034B47"></path><path d="M46.2562 45.9108C43.4216 45.9108 41.1232 43.6762 41.1232 40.9204C41.1232 38.164 43.4216 35.9299 46.2562 35.9299C49.0908 35.9299 51.3892 38.164 51.3892 40.9204C51.3859 43.6749 49.0894 45.9072 46.2562 45.9108ZM46.2562 37.926C44.5555 37.926 43.1763 39.2665 43.1763 40.9204C43.1763 42.5738 44.5555 43.9143 46.2562 43.9143C47.9569 43.9143 49.3361 42.5738 49.3361 40.9204C49.3342 39.2674 47.9564 37.9278 46.2562 37.926Z" fill="#034B47"></path><path d="M51.3891 57.8874C48.5541 57.8874 46.2561 55.6533 46.2561 52.897C46.2561 50.1411 48.5541 47.907 51.3891 47.907C54.2237 47.907 56.5217 50.1411 56.5217 52.897C56.5184 55.6519 54.2223 57.8842 51.3891 57.8874ZM51.3891 49.9031C49.688 49.9031 48.3092 51.2435 48.3092 52.897C48.3092 54.5509 49.688 55.8913 51.3891 55.8913C53.0898 55.8913 54.4686 54.5509 54.4686 52.897C54.4667 51.244 53.0889 49.9049 51.3891 49.9031Z" fill="#034B47"></path><path d="M49.3361 30.9399H34.9638C34.3971 30.9399 33.9375 30.4926 33.9375 29.9416C33.9375 29.3906 34.3971 28.9434 34.9638 28.9434H49.3361C49.9028 28.9434 50.3624 29.3906 50.3624 29.9416C50.3624 30.4926 49.9028 30.9399 49.3361 30.9399Z" fill="#034B47"></path><path d="M41.5484 53.8952C41.0042 53.8938 40.4826 53.6836 40.0968 53.3104L36.592 49.903C36.2053 49.5293 35.9891 49.0212 35.9905 48.4917V40.9204C35.9905 40.3689 36.4501 39.9221 37.0169 39.9221C37.5841 39.9221 37.6551 40.533 37.6551 41.0844V48.4917L41.5484 51.8991H47.2829C47.8496 51.8991 48.3092 52.3459 48.3092 52.8969C48.3092 53.4484 47.8496 53.8952 47.2829 53.8952H41.5484Z" fill="#034B47"></path><path d="M35.9905 18.9631V11.3917C35.9892 10.8622 36.1997 10.3542 36.5765 9.98045L39.9905 6.57308C40.3664 6.19981 40.8745 5.98965 41.4046 5.98828H46.9908C47.5428 5.98828 47.9904 6.4351 47.9904 6.98655C47.9904 7.53754 47.5428 7.98437 46.9908 7.98437H41.4046L37.709 11.205V18.9631C37.709 19.5145 37.5428 19.9613 36.9903 19.9613C36.4382 19.9613 35.9905 19.5145 35.9905 18.9631Z" fill="#034B47"></path><defs><linearGradient id="paint0_linear_82_1691" x1="14.1619" y1="5.85482" x2="38.9714" y2="51.2199" gradientUnits="userSpaceOnUse"><stop offset="0.000580659" stop-color="#E3F2F2"></stop><stop offset="1" stop-color="#D0EAEE"></stop></linearGradient><linearGradient id="paint1_linear_82_1691" x1="21.1697" y1="15.8799" x2="36.7933" y2="42.3078" gradientUnits="userSpaceOnUse"><stop offset="0.000580659" stop-color="#E3F2F2"></stop><stop offset="1" stop-color="#D0D8EE"></stop></linearGradient></defs></svg>