<svg xmlns="http://www.w3.org/2000/svg" width="60" height="60" viewBox="0 0 60 60" fill="none"><path d="M58.9998 11.3145V50.4C58.9998 52.6723 57.209 54.5143 54.9999 54.5143H5.00018C2.79102 54.5143 1.00024 52.6723 1.00024 50.4V11.3145H58.9998Z" fill="#B2EAEE"></path><path d="M56.0001 11.3145V50.4C56.0001 52.6723 54.2093 54.5143 52.0002 54.5143H5.00018C2.79102 54.5143 1.00024 52.6723 1.00024 50.4V11.3145H56.0001Z" fill="url(#paint0_linear_82_1772)"></path><path d="M58.9998 5.14303V13.3715H1.00024V5.14303C1.00024 2.87074 2.79102 1.02881 5.00018 1.02881H54.9999C57.209 1.02881 58.9998 2.87074 58.9998 5.14303Z" fill="#A4F2F7"></path><path d="M56.0001 5.14303V13.3715H1.00024V5.14303C1.00024 2.87074 2.79102 1.02881 5.00018 1.02881H52.0002C54.2093 1.02881 56.0001 2.87074 56.0001 5.14303Z" fill="#E3E7F2"></path><path d="M9.00018 7.20018C9.00018 8.33632 8.1048 9.25729 7.00021 9.25729C5.89563 9.25729 5.00024 8.33632 5.00024 7.20018C5.00024 6.06403 5.89563 5.14307 7.00021 5.14307C8.1048 5.14307 9.00018 6.06403 9.00018 7.20018Z" fill="#E3E7F2"></path><path d="M16.9999 7.20018C16.9999 8.33632 16.1046 9.25729 15 9.25729C13.8954 9.25729 13 8.33632 13 7.20018C13 6.06403 13.8954 5.14307 15 5.14307C16.1046 5.14307 16.9999 6.06403 16.9999 7.20018Z" fill="#E3E7F2"></path><path d="M24.9999 7.20018C24.9999 8.33632 24.1046 9.25729 23 9.25729C21.8954 9.25729 21 8.33632 21 7.20018C21 6.06403 21.8954 5.14307 23 5.14307C24.1046 5.14307 24.9999 6.06403 24.9999 7.20018Z" fill="#E3E7F2"></path><path d="M35.0002 44.2285H56.9999V50.3998H35.0002V44.2285Z" fill="#A4F2F7"></path><path d="M35.0002 44.2285H54.0002V50.3998H35.0002V44.2285Z" fill="#E3E7F2"></path><path d="M35.0002 37.0286H56.9999C58.1045 37.0286 58.9998 37.9495 58.9998 39.0857V43.1999C58.9998 44.336 58.1045 45.257 56.9999 45.257H35.0002C33.8956 45.257 33.0002 44.336 33.0002 43.1999V39.0857C33.0002 37.9495 33.8956 37.0286 35.0002 37.0286Z" fill="#A4F2F7"></path><path d="M35.0002 49.3716H56.9999C58.1045 49.3716 58.9998 50.2926 58.9998 51.4287V55.5429C58.9998 56.6791 58.1045 57.6 56.9999 57.6H35.0002C33.8956 57.6 33.0002 56.6791 33.0002 55.5429V51.4287C33.0002 50.2926 33.8956 49.3716 35.0002 49.3716Z" fill="#A4F2F7"></path><path d="M35.0002 37.0286H54.0002C55.1047 37.0286 56.0001 37.9495 56.0001 39.0857V43.1999C56.0001 44.336 55.1047 45.257 54.0002 45.257H35.0002C33.8956 45.257 33.0002 44.336 33.0002 43.1999V39.0857C33.0002 37.9495 33.8956 37.0286 35.0002 37.0286Z" fill="#E3E7F2"></path><path d="M35.0002 49.3716H54.0002C55.1047 49.3716 56.0001 50.2926 56.0001 51.4287V55.5429C56.0001 56.6791 55.1047 57.6 54.0002 57.6H35.0002C33.8956 57.6 33.0002 56.6791 33.0002 55.5429V51.4287C33.0002 50.2926 33.8956 49.3716 35.0002 49.3716Z" fill="#E3E7F2"></path><path d="M5.00018 54.5142H7.99991C5.79074 54.5142 3.99997 52.6722 3.99997 50.4V5.14303C3.99997 2.87074 5.79074 1.02881 7.99991 1.02881H5.00018C2.79102 1.02881 1.00024 2.87074 1.00024 5.14303V50.4C1.00024 52.6722 2.79102 54.5142 5.00018 54.5142Z" fill="#4DB9B6"></path><path d="M1.99997 20.5715V50.3971H0V20.5715H1.99997Z" fill="#4DB9B6"></path><path d="M7.00018 4.11426C5.34308 4.11426 4 5.49571 4 7.20016C4 8.90414 5.34308 10.2856 7.00018 10.2856C8.65683 10.2856 9.99991 8.90414 9.99991 7.20016C9.99991 5.49571 8.65683 4.11426 7.00018 4.11426ZM7.00018 8.22848C6.44766 8.22848 5.99997 7.768 5.99997 7.20016C5.99997 6.63185 6.44766 6.17137 7.00018 6.17137C7.55225 6.17137 7.99994 6.63185 7.99994 7.20016C7.99994 7.768 7.55225 8.22848 7.00018 8.22848Z" fill="#034B47"></path><path d="M14.9999 4.11426C13.3433 4.11426 11.9998 5.49571 11.9998 7.20016C11.9998 8.90414 13.3433 10.2856 14.9999 10.2856C16.6566 10.2856 18.0001 8.90414 18.0001 7.20016C18.0001 5.49571 16.6566 4.11426 14.9999 4.11426ZM14.9999 8.22848C14.4479 8.22848 13.9997 7.768 13.9997 7.20016C13.9997 6.63185 14.4479 6.17137 14.9999 6.17137C15.552 6.17137 16.0002 6.63185 16.0002 7.20016C16.0002 7.768 15.552 8.22848 14.9999 8.22848Z" fill="#034B47"></path><path d="M23 4.11426C21.3433 4.11426 20.0002 5.49571 20.0002 7.20016C20.0002 8.90414 21.3433 10.2856 23 10.2856C24.6571 10.2856 26.0002 8.90414 26.0002 7.20016C26.0002 5.49571 24.6571 4.11426 23 4.11426ZM23 8.22848C22.4479 8.22848 22.0002 7.768 22.0002 7.20016C22.0002 6.63185 22.4479 6.17137 23 6.17137C23.5525 6.17137 24.0002 6.63185 24.0002 7.20016C24.0002 7.768 23.5525 8.22848 23 8.22848Z" fill="#034B47"></path><path d="M43.0001 6.17139H33.0002C32.4477 6.17139 32 6.63187 32 7.20018C32 7.76801 32.4477 8.2285 33.0002 8.2285H43.0001C43.5521 8.2285 43.9998 7.76801 43.9998 7.20018C43.9998 6.63187 43.5521 6.17139 43.0001 6.17139Z" fill="#80D8D8"></path><path d="M54.0001 6.17139H47C46.4479 6.17139 46.0002 6.63187 46.0002 7.20018C46.0002 7.76801 46.4479 8.2285 47 8.2285H54.0001C54.5522 8.2285 54.9999 7.76801 54.9999 7.20018C54.9999 6.63187 54.5522 6.17139 54.0001 6.17139Z" fill="#034B47"></path><path d="M1.00009 29.8284C1.26468 29.8246 1.51828 29.7182 1.71008 29.5303C2.09644 29.1249 2.09644 28.4752 1.71008 28.0698L1.55994 27.9464C1.50409 27.9073 1.44367 27.8762 1.38004 27.8536C1.32327 27.824 1.26239 27.8033 1.19968 27.792C1.13376 27.7807 1.06693 27.7736 1.00009 27.7712C0.735047 27.7755 0.481446 27.8819 0.290101 28.0698C0.199464 28.1682 0.128052 28.283 0.0799873 28.4092C-0.0710747 28.793 0.0113227 29.2318 0.290101 29.5303C0.385316 29.6231 0.497468 29.6965 0.619691 29.7464C0.740082 29.7992 0.869172 29.8269 1.00009 29.8284Z" fill="#42F4FF"></path><path d="M54.9998 0H5.00015C2.23984 0.0032959 0.00320435 2.30383 0 5.14301V24.6858C0 25.2536 0.447693 25.7141 1.00021 25.7141C1.55228 25.7141 1.99997 25.2536 1.99997 24.6858V14.3998H58V31.8859C58 32.4538 58.4477 32.9143 58.9998 32.9143C59.5523 32.9143 60 32.4538 60 31.8859V5.14301C59.9968 2.30383 57.7602 0.0032959 54.9998 0ZM1.99997 12.3427V5.14301C1.99997 3.43856 3.34305 2.05711 5.00015 2.05711H54.9998C56.657 2.05711 58 3.43856 58 5.14301V12.3427H1.99997Z" fill="#034B47"></path><path d="M28.9998 55.543C29.5523 55.543 30 55.0825 30 54.5142C30 53.9463 29.5523 53.4858 28.9998 53.4858H5.00015C3.34305 53.4858 1.99997 52.1044 1.99997 50.3999V24.6709C1.99997 23.6426 1.55228 23.6426 1.00021 23.6426C0.447693 23.6426 0 24.1031 0 24.6709V50.3999C0.00320435 53.2391 2.23984 55.5397 5.00015 55.543H28.9998Z" fill="#034B47"></path><path d="M9.70686 16.7563C9.31638 16.3547 8.6833 16.3547 8.29282 16.7563L5.2931 19.8422C4.90263 20.2438 4.90263 20.895 5.2931 21.2966L8.29282 24.3821C8.68513 24.7719 9.30906 24.7663 9.69495 24.3698C10.0804 23.9729 10.0859 23.3316 9.70686 22.9276L7.41392 20.5715L9.70686 18.2131C9.895 18.02 10.0007 17.7578 10.0007 17.4847C10.0007 17.2116 9.895 16.9493 9.70686 16.7563Z" fill="#034B47"></path><path d="M17.293 24.3822C17.6835 24.7838 18.3166 24.7838 18.7071 24.3822L21.7073 21.2967C22.0973 20.8951 22.0973 20.2439 21.7073 19.8423L18.7071 16.7564C18.4562 16.489 18.0841 16.3821 17.7348 16.4762C17.3851 16.5699 17.1118 16.851 17.0202 17.2108C16.9291 17.57 17.033 17.9528 17.293 18.2108L19.586 20.5716L17.293 22.9301C16.904 23.3312 16.904 23.981 17.293 24.3822Z" fill="#034B47"></path><path d="M15.4467 16.5601C15.2096 16.4381 14.9349 16.4179 14.6832 16.5041C14.4319 16.5902 14.2236 16.7757 14.105 17.0196L11.1048 23.1914C10.9863 23.4353 10.9666 23.7178 11.0508 23.9768C11.135 24.2358 11.3154 24.45 11.553 24.5715C11.6912 24.6454 11.8441 24.6845 11.9998 24.6859C12.3806 24.6878 12.7299 24.4674 12.8997 24.1171L15.8999 17.9458C16.0198 17.7005 16.0395 17.4161 15.9544 17.1557C15.8692 16.8953 15.6866 16.6811 15.4467 16.5601Z" fill="#034B47"></path><path d="M24.9998 20.5715H29.9999C30.552 20.5715 31.0001 20.111 31.0001 19.5427C31.0001 18.9749 30.552 18.5144 29.9999 18.5144H24.9998C24.4477 18.5144 24 18.9749 24 19.5427C24 20.111 24.4477 20.5715 24.9998 20.5715Z" fill="#80D8D8"></path><path d="M35.0002 20.5715C35.5523 20.5715 36 20.111 36 19.5427C36 18.9749 35.5523 18.5144 35.0002 18.5144H34C33.4479 18.5144 33.0002 18.9749 33.0002 19.5427C33.0002 20.111 33.4479 20.5715 34 20.5715H35.0002Z" fill="#80D8D8"></path><path d="M24.9998 25.7141H26.9997C27.5522 25.7141 27.9999 25.2536 27.9999 24.6858C27.9999 24.1175 27.5522 23.657 26.9997 23.657H24.9998C24.4477 23.657 24 24.1175 24 24.6858C24 25.2536 24.4477 25.7141 24.9998 25.7141Z" fill="#80D8D8"></path><path d="M6 30.8572H9.00018C9.55225 30.8572 9.99994 30.3967 9.99994 29.8284C9.99994 29.2605 9.55225 28.8 9.00018 28.8H6C5.44794 28.8 5.00024 29.2605 5.00024 29.8284C5.00024 30.3967 5.44794 30.8572 6 30.8572Z" fill="#80D8D8"></path><path d="M11.9998 29.8284C11.9998 30.3967 12.4474 30.8572 13 30.8572H20.9998C21.5524 30.8572 22.0001 30.3967 22.0001 29.8284C22.0001 29.2605 21.5524 28.8 20.9998 28.8H13C12.4474 28.8 11.9998 29.2605 11.9998 29.8284Z" fill="#80D8D8"></path><path d="M24.9998 30.8572H28.9997C29.5522 30.8572 29.9999 30.3967 29.9999 29.8284C29.9999 29.2605 29.5522 28.8 28.9997 28.8H24.9998C24.4477 28.8 24 29.2605 24 29.8284C24 30.3967 24.4477 30.8572 24.9998 30.8572Z" fill="#80D8D8"></path><path d="M6 41.1428H9.00018C9.55225 41.1428 9.99994 40.6823 9.99994 40.1145C9.99994 39.5462 9.55225 39.0857 9.00018 39.0857H6C5.44794 39.0857 5.00024 39.5462 5.00024 40.1145C5.00024 40.6823 5.44794 41.1428 6 41.1428Z" fill="#80D8D8"></path><path d="M13 39.0857C12.4474 39.0857 11.9998 39.5462 11.9998 40.1145C11.9998 40.6823 12.4474 41.1428 13 41.1428H20.9998C21.5524 41.1428 22.0001 40.6823 22.0001 40.1145C22.0001 39.5462 21.5524 39.0857 20.9998 39.0857H13Z" fill="#034B47"></path><path d="M28.9997 39.0857H24.9998C24.4477 39.0857 24 39.5462 24 40.1145C24 40.6823 24.4477 41.1428 24.9998 41.1428H28.9997C29.5522 41.1428 29.9999 40.6823 29.9999 40.1145C29.9999 39.5462 29.5522 39.0857 28.9997 39.0857Z" fill="#80D8D8"></path><path d="M20.0002 34.9714C20.0002 35.5397 20.4479 36.0002 21 36.0002H28.9999C29.5524 36.0002 30.0001 35.5397 30.0001 34.9714C30.0001 34.4036 29.5524 33.9431 28.9999 33.9431H21C20.4479 33.9431 20.0002 34.4036 20.0002 34.9714Z" fill="#034B47"></path><path d="M6 36.0002H17.0001C17.5526 36.0002 18.0003 35.5397 18.0003 34.9714C18.0003 34.4036 17.5526 33.9431 17.0001 33.9431H6C5.44794 33.9431 5.00024 34.4036 5.00024 34.9714C5.00024 35.5397 5.44794 36.0002 6 36.0002Z" fill="#034B47"></path><path d="M34 36.1895C32.8057 36.6236 32.0055 37.7828 32 39.0856V43.1998C32.0055 44.5027 32.8061 45.6614 34 46.0955V48.5321C32.8057 48.9662 32.0055 50.1255 32 51.4287V55.543C32 57.2469 33.3431 58.6284 35.0002 58.6284H56.9998C58.657 58.6284 60 57.2469 60 55.543V51.4287C59.995 50.1255 59.1944 48.9662 58.0001 48.5321V46.0932C59.1935 45.6595 59.9936 44.5017 60 43.1998V39.0856C59.995 37.7828 59.1944 36.6236 58.0001 36.1895H34ZM56.0001 48.3428H35.9999V46.2857H56.0001V48.3428Z" fill="#034B47"></path><path d="M58.0001 55.5429C58.0001 56.1108 57.5524 56.5712 56.9999 56.5712H35.0002C34.4477 56.5712 34 56.1108 34 55.5429V51.4287C34 50.8604 34.4477 50.3999 35.0002 50.3999H56.9999C57.5524 50.3999 58.0001 50.8604 58.0001 51.4287V55.5429Z" fill="#034B47"></path><path d="M56.9999 44.2287H35.0002C34.4477 44.2287 34 43.7682 34 43.1999V39.0857C34 38.5179 34.4477 38.0574 35.0002 38.0574H56.9999C57.5524 38.0574 58.0001 38.5179 58.0001 39.0857V43.1999C58.0001 43.7682 57.5524 44.2287 56.9999 44.2287Z" fill="#034B47"></path><path d="M38 40.1143H37.0002C36.4477 40.1143 36 40.5747 36 41.1426C36 41.7109 36.4477 42.1714 37.0002 42.1714H38C38.5525 42.1714 39.0002 41.7109 39.0002 41.1426C39.0002 40.5747 38.5525 40.1143 38 40.1143Z" fill="#4DB9B6"></path><path d="M41.6198 40.1865C41.4985 40.2421 41.3868 40.3188 41.2898 40.4125C41.1057 40.6088 41.0018 40.8702 41 41.1428C41 41.7111 41.4477 42.1716 41.9998 42.1716C42.5523 42.1716 43 41.7111 43 41.1428C42.9981 40.8702 42.8942 40.6088 42.7097 40.4125C42.4218 40.1225 41.9947 40.0339 41.6198 40.1865Z" fill="#4DB9B6"></path><path d="M54.9998 39.4285H46.0002C45.4477 39.4285 45 39.8122 45 40.2854C45 40.759 45.4477 41.1427 46.0002 41.1427H54.9998C55.5524 41.1427 56.0001 40.759 56.0001 40.2854C56.0001 39.8122 55.5524 39.4285 54.9998 39.4285Z" fill="#034B47"></path><path d="M38 52.457H37.0002C36.4477 52.457 36 52.9175 36 53.4858C36 54.0537 36.4477 54.5141 37.0002 54.5141H38C38.5525 54.5141 39.0002 54.0537 39.0002 53.4858C39.0002 52.9175 38.5525 52.457 38 52.457Z" fill="#4DB9B6"></path><path d="M41.2898 52.7557C41.1057 52.9515 41.0018 53.2133 41 53.4859C41.0037 53.7581 41.1076 54.0189 41.2898 54.2162C41.3873 54.3071 41.499 54.3801 41.6198 54.4323C41.7402 54.4846 41.8693 54.5128 41.9998 54.5143C42.2662 54.5171 42.5221 54.4097 42.7102 54.2162C42.8983 54.0227 43.0027 53.7595 43 53.4859C42.9981 53.2133 42.8942 52.9515 42.7097 52.7557C42.3087 52.3747 41.6908 52.3747 41.2898 52.7557Z" fill="#4DB9B6"></path><path d="M54.9998 53.1428H46.0002C45.4477 53.1428 45 53.5266 45 54.0002C45 54.4734 45.4477 54.8571 46.0002 54.8571H54.9998C55.5524 54.8571 56.0001 54.4734 56.0001 54.0002C56.0001 53.5266 55.5524 53.1428 54.9998 53.1428Z" fill="#034B47"></path><defs><linearGradient id="paint0_linear_82_1772" x1="8.21332" y1="22.4321" x2="49.045" y2="54.395" gradientUnits="userSpaceOnUse"><stop offset="0.000580659" stop-color="#E3F0F2"></stop><stop offset="1" stop-color="#D0D8EE"></stop></linearGradient></defs></svg>