<svg xmlns="http://www.w3.org/2000/svg" width="512" height="512" x="0" y="0" viewBox="0 0 24 24" style="enable-background:new 0 0 512 512" xml:space="preserve" class=""><g><path d="m23 12a1 1 0 0 0 -.553-.895l-3.211-1.605 3.211-1.6a1 1 0 0 0 0-1.79l-10-5a1 1 0 0 0 -.894 0l-10 5a1 1 0 0 0 0 1.79l3.211 1.6-3.211 1.605a1 1 0 0 0 0 1.79l3.211 1.605-3.211 1.605a1 1 0 0 0 0 1.79l10 5a1 1 0 0 0 .894 0l10-5a1 1 0 0 0 0-1.79l-3.211-1.605 3.211-1.6a1 1 0 0 0 .553-.9zm-3.236 5-7.764 3.882-7.764-3.882 2.764-1.382 4.553 2.282a1 1 0 0 0 .894 0l4.553-2.282zm-7.764-1.118-7.764-3.882 2.764-1.382 4.553 2.282a1 1 0 0 0 .894 0l4.553-2.282 2.764 1.382z" fill="#4EBCB9" data-original="#000000"></path></g></svg>