<svg xmlns="http://www.w3.org/2000/svg" width="60" height="60" viewBox="0 0 60 60" fill="none"><path opacity="0.497373" d="M10.9612 45.9459V58.8952H1.00012V45.9459C1.00339 44.847 1.89335 43.9569 2.99238 43.9536H8.96903C10.0679 43.9569 10.958 44.847 10.9612 45.9459Z" fill="#80D8CD"></path><path d="M7.97285 45.9459V58.8952H1.00012V45.9459C1.00339 44.847 1.89335 43.9569 2.99238 43.9536H5.98071C7.07962 43.9569 7.96969 44.847 7.97285 45.9459Z" fill="url(#paint0_linear_82_1737)"></path><path opacity="0.497373" d="M26.899 32.0003V58.8953H16.9379V32.0003C16.9411 30.9014 17.8311 30.0113 18.9301 30.0081H24.9068C26.0057 30.0112 26.8958 30.9013 26.899 32.0003Z" fill="#80D8CD"></path><path d="M23.9107 32.0003V58.8953H16.9379V32.0003C16.9411 30.9014 17.8311 30.0113 18.9301 30.0081H21.9185C23.0174 30.0112 23.9074 30.9013 23.9107 32.0003Z" fill="url(#paint1_linear_82_1737)"></path><path opacity="0.497373" d="M42.8367 37.9771V58.8954H32.8756V37.9771C32.8788 36.8782 33.7688 35.9881 34.8679 35.9849H40.8445C41.9433 35.988 42.8334 36.8781 42.8367 37.9771Z" fill="#80D8CD"></path><path d="M39.8483 37.9771V58.8954H32.8756V37.9771C32.8788 36.8782 33.7688 35.9881 34.8679 35.9849H37.8562C38.955 35.988 39.8451 36.8781 39.8483 37.9771Z" fill="url(#paint2_linear_82_1737)"></path><path opacity="0.497373" d="M58.7744 30.0081V58.8953H48.8134V30.0081C48.8165 28.9092 49.7066 28.0191 50.8056 28.0159H56.7823C57.8812 28.0191 58.7713 28.9092 58.7744 30.0081Z" fill="#80D8CD"></path><path d="M55.7861 30.0081V58.8953H48.8134V30.0081C48.8165 28.9092 49.7066 28.0191 50.8056 28.0159H53.7939C54.8929 28.0191 55.7829 28.9092 55.7861 30.0081Z" fill="url(#paint3_linear_82_1737)"></path><path d="M5.98071 30.008C8.73141 30.008 10.9613 27.7782 10.9613 25.0275C10.9613 22.2768 8.73141 20.0469 5.98071 20.0469C3.23001 20.0469 1.00012 22.2768 1.00012 25.0275C1.00012 27.7782 3.23001 30.008 5.98071 30.008Z" fill="#034B47"></path><path d="M21.9184 11.082C24.6691 11.082 26.899 8.85213 26.899 6.10143C26.899 3.35073 24.6691 1.12085 21.9184 1.12085C19.1677 1.12085 16.9379 3.35073 16.9379 6.10143C16.9379 8.85213 19.1677 11.082 21.9184 11.082Z" fill="#034B47"></path><path d="M53.7939 13.0742C56.5446 13.0742 58.7745 10.8443 58.7745 8.09362C58.7745 5.34292 56.5446 3.11304 53.7939 3.11304C51.0432 3.11304 48.8134 5.34292 48.8134 8.09362C48.8134 10.8443 51.0432 13.0742 53.7939 13.0742Z" fill="#034B47"></path><path d="M37.8561 23.0354C40.6068 23.0354 42.8367 20.8055 42.8367 18.0548C42.8367 15.3041 40.6068 13.0742 37.8561 13.0742C35.1054 13.0742 32.8755 15.3041 32.8755 18.0548C32.8755 20.8055 35.1054 23.0354 37.8561 23.0354Z" fill="#034B47"></path><path d="M5.98071 43.9536C4.8818 43.957 3.99172 44.847 3.98845 45.946V58.8954H1.00012V45.9459C1.00339 44.847 1.89335 43.9569 2.99238 43.9536H5.98071Z" fill="#4EBCB9"></path><path d="M21.9184 30.0081C20.8195 30.0113 19.9295 30.9013 19.9262 32.0003V58.8953H16.9379V32.0003C16.9411 30.9014 17.8311 30.0113 18.9301 30.0081H21.9184Z" fill="#4EBCB9"></path><path d="M37.8561 35.9849C36.7572 35.988 35.8671 36.8781 35.8638 37.9771V58.8954H32.8755V37.9771C32.8786 36.8782 33.7687 35.9881 34.8677 35.9849H37.8561Z" fill="#4EBCB9"></path><path d="M53.7939 28.0159C52.695 28.0191 51.8049 28.9091 51.8017 30.0081V58.8953H48.8134V30.0081C48.8165 28.9092 49.7066 28.0191 50.8056 28.0159H53.7939Z" fill="#4EBCB9"></path><path opacity="0.495768" d="M7.47487 29.7889C6.98973 29.9327 6.48662 30.0065 5.98071 30.008C3.23004 30.008 1.00012 27.7781 1.00012 25.0275C1.00012 22.2768 3.23004 20.0469 5.98071 20.0469C6.48662 20.0484 6.98973 20.1222 7.47487 20.266C5.39915 20.9235 3.98845 22.8499 3.98845 25.0273C3.98845 27.2047 5.39903 29.1314 7.47487 29.7889Z" fill="#80D8CD"></path><path opacity="0.495768" d="M23.4126 10.8629C22.9275 11.0067 22.4244 11.0805 21.9184 11.082C19.1678 11.082 16.9379 8.85209 16.9379 6.10143C16.9379 3.35077 19.1678 1.12085 21.9184 1.12085C22.4244 1.12237 22.9275 1.19614 23.4126 1.33995C21.3368 1.99762 19.9262 3.92416 19.9262 6.10155C19.9262 8.27894 21.3368 10.2055 23.4126 10.8629Z" fill="#80D8CD"></path><path opacity="0.495768" d="M55.288 12.8552C54.8029 12.999 54.2998 13.0728 53.7939 13.0743C52.0145 13.0743 50.3703 12.1251 49.4806 10.5841C48.5909 9.04313 48.5909 7.14449 49.4806 5.60351C50.3704 4.06254 52.0145 3.11328 53.7939 3.11328C54.2998 3.1148 54.8029 3.18857 55.288 3.33239C53.2123 3.98993 51.8016 5.91636 51.8016 8.09375C51.8016 10.2711 53.2122 12.1977 55.288 12.8552Z" fill="#80D8CD"></path><path opacity="0.495768" d="M39.3502 22.8163C38.8651 22.9601 38.362 23.0339 37.8561 23.0354C35.1054 23.0354 32.8755 20.8055 32.8755 18.0548C32.8755 15.3041 35.1054 13.0742 37.8561 13.0742C38.362 13.0757 38.8651 13.1495 39.3502 13.2933C37.2745 13.9509 35.8638 15.8773 35.8638 18.0547C35.8638 20.2321 37.2745 22.1588 39.3502 22.8163Z" fill="#80D8CD"></path><path d="M8.96901 42.9575H2.99236C1.34271 42.9593 0.00577929 44.2962 0.00402832 45.9458V58.8952C0.00402832 59.4454 0.450059 59.8913 1.0001 59.8913H10.9611C11.5113 59.8913 11.9572 59.4454 11.9572 58.8952V45.9458C11.9555 44.2962 10.6187 42.9594 8.96901 42.9575ZM9.96508 57.8991H1.99617V45.9458C1.99687 45.396 2.44243 44.9505 2.99224 44.9498H8.96889C9.5187 44.9505 9.96426 45.396 9.96496 45.9458V57.8991H9.96508Z" fill="#034B47"></path><path d="M24.9068 29.0122H18.9301C17.2804 29.014 15.9435 30.3509 15.9418 32.0005V58.8955C15.9418 59.4456 16.3878 59.8915 16.9378 59.8915H26.8989C27.449 59.8915 27.895 59.4456 27.895 58.8955V32.0005C27.8932 30.3508 26.5564 29.014 24.9068 29.0122ZM25.9028 57.8993H17.9339V32.0005C17.9346 31.4507 18.3802 31.0052 18.93 31.0045H24.9066C25.4564 31.0052 25.902 31.4507 25.9027 32.0005V57.8993H25.9028Z" fill="#034B47"></path><path d="M40.8444 34.9888H34.8677C33.2181 34.9905 31.8811 36.3274 31.8794 37.9771V58.8954C31.8794 59.4455 32.3254 59.8914 32.8755 59.8914H42.8365C43.3867 59.8914 43.8326 59.4455 43.8326 58.8954V37.9771C43.831 36.3273 42.494 34.9905 40.8444 34.9888ZM41.8406 57.8992H33.8717V37.9771C33.8724 37.4273 34.3179 36.9817 34.8677 36.981H40.8444C41.3942 36.9817 41.8397 37.4273 41.8404 37.9771V57.8992H41.8406Z" fill="#034B47"></path><path d="M56.7822 27.02H50.8056C49.1559 27.0218 47.819 28.3587 47.8173 30.0083V58.8955C47.8173 59.4457 48.2632 59.8916 48.8133 59.8916H58.7744C59.3245 59.8916 59.7705 59.4457 59.7705 58.8955V30.0083C59.7687 28.3587 58.4319 27.0218 56.7822 27.02ZM57.7783 57.8994H49.8094V30.0083C49.8101 29.4585 50.2557 29.013 50.8055 29.0123H56.7821C57.3319 29.013 57.7775 29.4585 57.7782 30.0083V57.8994H57.7783Z" fill="#034B47"></path><path d="M53.7939 2.11725C51.7992 2.11574 49.9355 3.11006 48.8262 4.76776C47.7168 6.42546 47.5083 8.52757 48.2704 10.3709L42.3178 14.0917C41.2468 12.8776 39.7271 12.1524 38.1095 12.0836C36.492 12.0147 34.9162 12.6083 33.746 13.727L27.2263 8.83725C28.6047 6.17122 27.7917 2.89644 25.3266 1.18445C22.8615 -0.527532 19.5091 -0.145587 17.4922 2.0771C15.4753 4.29978 15.4201 7.67344 17.3628 9.96115L9.01163 19.8854C6.3338 18.3098 2.89524 19.0487 1.1012 21.5855C-0.69285 24.1223 -0.244134 27.6105 2.13369 29.6104C4.51151 31.6104 8.02501 31.4549 10.2169 29.2528C12.4087 27.0506 12.5477 23.5363 10.5365 21.168L18.8877 11.2437C21.1807 12.6077 24.102 12.2745 26.029 10.4292L32.5487 15.319C31.2798 17.7768 31.8637 20.7843 33.9601 22.5887C36.0564 24.3931 39.1174 24.5227 41.3589 22.902C43.6003 21.2813 44.4365 18.3341 43.38 15.7778L49.3326 12.0569C51.1574 14.1111 54.1482 14.6552 56.5796 13.3755C59.011 12.0959 60.2558 9.32262 59.5959 6.65543C58.9358 3.98834 56.5414 2.1155 53.7939 2.11725ZM5.98069 29.0122C3.78019 29.0122 1.99629 27.2283 1.99629 25.0278C1.99629 22.8273 3.78019 21.0434 5.98069 21.0434C8.1812 21.0434 9.96509 22.8273 9.96509 25.0278C9.96252 27.2273 8.18015 29.0096 5.98069 29.0122ZM21.9184 10.086C19.7179 10.086 17.934 8.30216 17.934 6.10165C17.934 3.90114 19.7179 2.11725 21.9184 2.11725C24.1189 2.11725 25.9028 3.90114 25.9028 6.10165C25.9003 8.30111 24.1179 10.0836 21.9184 10.086ZM37.8561 22.0394C35.6556 22.0394 33.8717 20.2555 33.8717 18.055C33.8717 15.8545 35.6556 14.0706 37.8561 14.0706C40.0566 14.0706 41.8405 15.8545 41.8405 18.055C41.8381 20.2544 40.0557 22.0369 37.8561 22.0394ZM53.7939 12.0783C51.5934 12.0783 49.8095 10.2944 49.8095 8.09391C49.8095 5.8934 51.5934 4.10951 53.7939 4.10951C55.9944 4.10951 57.7783 5.8934 57.7783 8.09391C57.7758 10.2934 55.9934 12.0757 53.7939 12.0783Z" fill="#034B47"></path><defs><linearGradient id="paint0_linear_82_1737" x1="3.94751" y1="45.231" x2="18.5384" y2="48.8149" gradientUnits="userSpaceOnUse"><stop offset="0.000580659" stop-color="#E3F2F0"></stop><stop offset="1" stop-color="#D0D8EE"></stop></linearGradient><linearGradient id="paint1_linear_82_1737" x1="20.2744" y1="32.4316" x2="33.1784" y2="38.5593" gradientUnits="userSpaceOnUse"><stop offset="0.000580659" stop-color="#E3F2EE"></stop><stop offset="1" stop-color="#D0D8EE"></stop></linearGradient><linearGradient id="paint2_linear_82_1737" x1="36.1237" y1="37.907" x2="47.5671" y2="42.2169" gradientUnits="userSpaceOnUse"><stop offset="0.000580659" stop-color="#E3F1F2"></stop><stop offset="1" stop-color="#D0D8EE"></stop></linearGradient><linearGradient id="paint3_linear_82_1737" x1="52.1686" y1="30.6066" x2="65.8458" y2="37.5495" gradientUnits="userSpaceOnUse"><stop offset="0.000580659" stop-color="#E3F2EF"></stop><stop offset="1" stop-color="#D0D8EE"></stop></linearGradient></defs></svg>