<svg xmlns="http://www.w3.org/2000/svg" width="80" height="79" viewBox="0 0 80 79" fill="none"><path d="M78.6663 15.0858V67.1999C78.6663 70.2296 76.2786 72.6855 73.333 72.6855H6.66675C3.72119 72.6855 1.3335 70.2296 1.3335 67.1999V15.0858H78.6663Z" fill="#0C0C0C"></path><path d="M74.6666 15.0858V67.1999C74.6666 70.2296 72.2789 72.6855 69.3334 72.6855H6.66675C3.72119 72.6855 1.3335 70.2296 1.3335 67.1999V15.0858H74.6666Z" fill="#0C0C0C"></path><path d="M78.6663 6.85737V17.8286H1.3335V6.85737C1.3335 3.82765 3.72119 1.37173 6.66675 1.37173H73.333C76.2786 1.37173 78.6663 3.82765 78.6663 6.85737Z" fill="#0C0C0C"></path><path d="M74.6666 6.85737V17.8286H1.3335V6.85737C1.3335 3.82765 3.72119 1.37173 6.66675 1.37173H69.3334C72.2789 1.37173 74.6666 3.82765 74.6666 6.85737Z" fill="#0C0C0C"></path><path d="M12.0002 9.60018C12.0002 11.115 10.8064 12.343 9.33362 12.343C7.86084 12.343 6.66699 11.115 6.66699 9.60018C6.66699 8.08532 7.86084 6.85736 9.33362 6.85736C10.8064 6.85736 12.0002 8.08532 12.0002 9.60018Z" fill="#0C0C0C"></path><path d="M22.6667 9.60018C22.6667 11.115 21.4729 12.343 20.0001 12.343C18.5273 12.343 17.3335 11.115 17.3335 9.60018C17.3335 8.08532 18.5273 6.85736 20.0001 6.85736C21.4729 6.85736 22.6667 8.08532 22.6667 9.60018Z" fill="#0C0C0C"></path><path d="M33.3333 9.60018C33.3333 11.115 32.1394 12.343 30.6666 12.343C29.1938 12.343 28 11.115 28 9.60018C28 8.08532 29.1938 6.85736 30.6666 6.85736C32.1394 6.85736 33.3333 8.08532 33.3333 9.60018Z" fill="#0C0C0C"></path><path d="M46.667 58.9715H75.9999V67.1999H46.667V58.9715Z" fill="#0C0C0C"></path><path d="M46.667 58.9715H72.0002V67.1999H46.667V58.9715Z" fill="#0C0C0C"></path><path d="M46.6669 49.3713H75.9998C77.4725 49.3713 78.6664 50.5993 78.6664 52.1141V57.5998C78.6664 59.1146 77.4725 60.3426 75.9998 60.3426H46.6669C45.1941 60.3426 44.0002 59.1146 44.0002 57.5998V52.1141C44.0002 50.5993 45.1941 49.3713 46.6669 49.3713Z" fill="#0C0C0C"></path><path d="M46.6669 65.8288H75.9998C77.4725 65.8288 78.6664 67.0568 78.6664 68.5716V74.0573C78.6664 75.5721 77.4725 76.8001 75.9998 76.8001H46.6669C45.1941 76.8001 44.0002 75.5721 44.0002 74.0573V68.5716C44.0002 67.0568 45.1941 65.8288 46.6669 65.8288Z" fill="#0C0C0C"></path><path d="M46.6669 49.3713H72.0001C73.4729 49.3713 74.6667 50.5993 74.6667 52.1141V57.5998C74.6667 59.1146 73.4729 60.3426 72.0001 60.3426H46.6669C45.1941 60.3426 44.0002 59.1146 44.0002 57.5998V52.1141C44.0002 50.5993 45.1941 49.3713 46.6669 49.3713Z" fill="#0C0C0C"></path><path d="M46.6669 65.8288H72.0001C73.4729 65.8288 74.6667 67.0568 74.6667 68.5716V74.0573C74.6667 75.5721 73.4729 76.8001 72.0001 76.8001H46.6669C45.1941 76.8001 44.0002 75.5721 44.0002 74.0573V68.5716C44.0002 67.0568 45.1941 65.8288 46.6669 65.8288Z" fill="#0C0C0C"></path><path d="M6.66675 72.6856H10.6664C7.72083 72.6856 5.33313 70.2296 5.33313 67.1999V6.85737C5.33313 3.82765 7.72083 1.37173 10.6664 1.37173H6.66675C3.72119 1.37173 1.3335 3.82765 1.3335 6.85737V67.1999C1.3335 70.2296 3.72119 72.6856 6.66675 72.6856Z" fill="#0C0C0C"></path><path d="M2.66663 27.4288V67.1961H0V27.4288H2.66663Z" fill="#0C0C0C"></path><path d="M9.3335 5.48563C7.12402 5.48563 5.33325 7.32756 5.33325 9.60016C5.33325 11.8721 7.12402 13.7141 9.3335 13.7141C11.5424 13.7141 13.3331 11.8721 13.3331 9.60016C13.3331 7.32756 11.5424 5.48563 9.3335 5.48563ZM9.3335 10.9713C8.5968 10.9713 7.99988 10.3573 7.99988 9.60016C7.99988 8.84242 8.5968 8.22844 9.3335 8.22844C10.0696 8.22844 10.6665 8.84242 10.6665 9.60016C10.6665 10.3573 10.0696 10.9713 9.3335 10.9713Z" fill="#4EBCB9"></path><path d="M20 5.48563C17.7911 5.48563 15.9998 7.32756 15.9998 9.60016C15.9998 11.8721 17.7911 13.7141 20 13.7141C22.2089 13.7141 24.0002 11.8721 24.0002 9.60016C24.0002 7.32756 22.2089 5.48563 20 5.48563ZM20 10.9713C19.2639 10.9713 18.6664 10.3573 18.6664 9.60016C18.6664 8.84242 19.2639 8.22844 20 8.22844C20.7361 8.22844 21.3336 8.84242 21.3336 9.60016C21.3336 10.3573 20.7361 10.9713 20 10.9713Z" fill="#4EBCB9"></path><path d="M30.6666 5.48563C28.4578 5.48563 26.667 7.32756 26.667 9.60016C26.667 11.8721 28.4578 13.7141 30.6666 13.7141C32.8761 13.7141 34.6669 11.8721 34.6669 9.60016C34.6669 7.32756 32.8761 5.48563 30.6666 5.48563ZM30.6666 10.9713C29.9305 10.9713 29.3336 10.3573 29.3336 9.60016C29.3336 8.84242 29.9305 8.22844 30.6666 8.22844C31.4033 8.22844 32.0002 8.84242 32.0002 9.60016C32.0002 10.3573 31.4033 10.9713 30.6666 10.9713Z" fill="#4EBCB9"></path><path d="M57.3333 8.22845H44.0001C43.2634 8.22845 42.6665 8.84243 42.6665 9.60018C42.6665 10.3573 43.2634 10.9713 44.0001 10.9713H57.3333C58.0693 10.9713 58.6663 10.3573 58.6663 9.60018C58.6663 8.84243 58.0693 8.22845 57.3333 8.22845Z" fill="#4EBCB9"></path><path d="M72 8.22845H62.6665C61.9304 8.22845 61.3335 8.84243 61.3335 9.60018C61.3335 10.3573 61.9304 10.9713 62.6665 10.9713H72C72.7361 10.9713 73.333 10.3573 73.333 9.60018C73.333 8.84243 72.7361 8.22845 72 8.22845Z" fill="#4EBCB9"></path><path d="M1.33362 39.7711C1.6864 39.7661 2.02454 39.6242 2.28027 39.3737C2.79541 38.8332 2.79541 37.9669 2.28027 37.4263L2.08008 37.2619C2.00562 37.2098 1.92505 37.1683 1.84021 37.1382C1.76453 37.0986 1.68335 37.071 1.59973 37.0559C1.51184 37.0409 1.42273 37.0315 1.33362 37.0283C0.980226 37.034 0.642091 37.1759 0.386964 37.4263C0.266114 37.5575 0.170899 37.7107 0.106813 37.879C-0.0946036 38.3906 0.0152597 38.9757 0.386964 39.3737C0.513917 39.4974 0.663453 39.5954 0.826417 39.6619C0.986939 39.7322 1.15906 39.7693 1.33362 39.7711Z" fill="#42F4FF"></path><path d="M73.3331 0H6.66687C2.98645 0.00439454 0.00427247 3.07178 0 6.85735V32.9144C0 33.6715 0.596924 34.2855 1.33362 34.2855C2.0697 34.2855 2.66663 33.6715 2.66663 32.9144V19.1997H77.3334V42.5146C77.3334 43.2717 77.9303 43.8857 78.6664 43.8857C79.4031 43.8857 80 43.2717 80 42.5146V6.85735C79.9957 3.07178 77.0135 0.00439454 73.3331 0ZM2.66663 16.4569V6.85735C2.66663 4.58475 4.4574 2.74282 6.66687 2.74282H73.3331C75.5426 2.74282 77.3334 4.58475 77.3334 6.85735V16.4569H2.66663Z" fill="#4EBCB9"></path><path d="M38.6664 74.0573C39.4031 74.0573 40 73.4433 40 72.6855C40 71.9284 39.4031 71.3144 38.6664 71.3144H6.66687C4.4574 71.3144 2.66663 69.4725 2.66663 67.1999V32.8945C2.66663 31.5234 2.0697 31.5234 1.33362 31.5234C0.596924 31.5234 0 32.1374 0 32.8945V67.1999C0.00427247 70.9855 2.98645 74.0529 6.66687 74.0573H38.6664Z" fill="#4EBCB9"></path><path d="M12.9425 22.3418C12.4218 21.8063 11.5777 21.8063 11.0571 22.3418L7.05746 26.4564C6.53683 26.9919 6.53683 27.8601 7.05746 28.3956L11.0571 32.5095C11.5802 33.0293 12.4121 33.0218 12.9266 32.4932C13.4405 31.964 13.4478 31.1089 12.9425 30.5703L9.88522 27.4288L12.9425 24.2842C13.1933 24.0268 13.3343 23.6771 13.3343 23.313C13.3343 22.9489 13.1933 22.5992 12.9425 22.3418Z" fill="#4EBCB9"></path><path d="M23.0572 32.5095C23.5778 33.045 24.4219 33.045 24.9425 32.5095L28.9428 28.3956C29.4628 27.8601 29.4628 26.9918 28.9428 26.4563L24.9425 22.3418C24.6081 21.9852 24.1118 21.8427 23.6461 21.9683C23.1798 22.0932 22.8155 22.468 22.6934 22.9476C22.5719 23.4266 22.7105 23.937 23.0572 24.281L26.1144 27.4288L23.0572 30.5734C22.5384 31.1083 22.5384 31.9746 23.0572 32.5095Z" fill="#4EBCB9"></path><path d="M20.5957 22.08C20.2795 21.9174 19.9133 21.8904 19.5776 22.0053C19.2426 22.1202 18.9648 22.3675 18.8068 22.6927L14.8065 30.9218C14.6484 31.247 14.6222 31.6237 14.7345 31.969C14.8468 32.3143 15.0873 32.5999 15.4041 32.7619C15.5884 32.8604 15.7922 32.9125 15.9998 32.9144C16.5076 32.9169 16.9733 32.6231 17.1997 32.1561L21.2 23.9276C21.3599 23.6005 21.3861 23.2213 21.2726 22.8742C21.1591 22.527 20.9155 22.2414 20.5957 22.08Z" fill="#4EBCB9"></path><path d="M33.333 27.4288H39.9999C40.736 27.4288 41.3335 26.8148 41.3335 26.0571C41.3335 25.2999 40.736 24.686 39.9999 24.686H33.333C32.5969 24.686 32 25.2999 32 26.0571C32 26.8148 32.5969 27.4288 33.333 27.4288Z" fill="#4EBCB9"></path><path d="M46.6669 27.4288C47.403 27.4288 47.9999 26.8148 47.9999 26.0571C47.9999 25.2999 47.403 24.686 46.6669 24.686H45.3333C44.5972 24.686 44.0002 25.2999 44.0002 26.0571C44.0002 26.8148 44.5972 27.4288 45.3333 27.4288H46.6669Z" fill="#4EBCB9"></path><path d="M33.333 34.2855H35.9996C36.7363 34.2855 37.3333 33.6715 37.3333 32.9144C37.3333 32.1567 36.7363 31.5427 35.9996 31.5427H33.333C32.5969 31.5427 32 32.1567 32 32.9144C32 33.6715 32.5969 34.2855 33.333 34.2855Z" fill="#4EBCB9"></path><path d="M8 41.1429H12.0002C12.7363 41.1429 13.3333 40.5289 13.3333 39.7711C13.3333 39.014 12.7363 38.4 12.0002 38.4H8C7.26392 38.4 6.66699 39.014 6.66699 39.7711C6.66699 40.5289 7.26392 41.1429 8 41.1429Z" fill="#4EBCB9"></path><path d="M15.9998 39.7711C15.9998 40.5289 16.5967 41.1429 17.3334 41.1429H27.9999C28.7366 41.1429 29.3335 40.5289 29.3335 39.7711C29.3335 39.014 28.7366 38.4 27.9999 38.4H17.3334C16.5967 38.4 15.9998 39.014 15.9998 39.7711Z" fill="#4EBCB9"></path><path d="M33.333 41.1429H38.6663C39.403 41.1429 39.9999 40.5289 39.9999 39.7711C39.9999 39.014 39.403 38.4 38.6663 38.4H33.333C32.5969 38.4 32 39.014 32 39.7711C32 40.5289 32.5969 41.1429 33.333 41.1429Z" fill="#4EBCB9"></path><path d="M8 54.8569H12.0002C12.7363 54.8569 13.3333 54.243 13.3333 53.4858C13.3333 52.7281 12.7363 52.1141 12.0002 52.1141H8C7.26392 52.1141 6.66699 52.7281 6.66699 53.4858C6.66699 54.243 7.26392 54.8569 8 54.8569Z" fill="#4EBCB9"></path><path d="M17.3334 52.1141C16.5967 52.1141 15.9998 52.7281 15.9998 53.4858C15.9998 54.243 16.5967 54.8569 17.3334 54.8569H27.9999C28.7366 54.8569 29.3335 54.243 29.3335 53.4858C29.3335 52.7281 28.7366 52.1141 27.9999 52.1141H17.3334Z" fill="#4EBCB9"></path><path d="M38.6663 52.1141H33.333C32.5969 52.1141 32 52.7281 32 53.4858C32 54.243 32.5969 54.8569 33.333 54.8569H38.6663C39.403 54.8569 39.9999 54.243 39.9999 53.4858C39.9999 52.7281 39.403 52.1141 38.6663 52.1141Z" fill="#4EBCB9"></path><path d="M26.667 46.6285C26.667 47.3862 27.2639 48.0002 28 48.0002H38.6665C39.4032 48.0002 40.0001 47.3862 40.0001 46.6285C40.0001 45.8714 39.4032 45.2574 38.6665 45.2574H28C27.2639 45.2574 26.667 45.8714 26.667 46.6285Z" fill="#4EBCB9"></path><path d="M8 48.0002H22.6667C23.4034 48.0002 24.0004 47.3862 24.0004 46.6285C24.0004 45.8714 23.4034 45.2574 22.6667 45.2574H8C7.26392 45.2574 6.66699 45.8714 6.66699 46.6285C6.66699 47.3862 7.26392 48.0002 8 48.0002Z" fill="#4EBCB9"></path><path d="M45.3331 48.2526C43.7407 48.8314 42.6738 50.377 42.6665 52.1141V57.5997C42.6738 59.3368 43.7413 60.8818 45.3331 61.4607V64.7095C43.7407 65.2883 42.6738 66.8339 42.6665 68.5716V74.0573C42.6665 76.3292 44.4573 78.1712 46.6667 78.1712H75.9996C78.2091 78.1712 79.9999 76.3292 79.9999 74.0573V68.5716C79.9932 66.8339 78.9257 65.2883 77.3333 64.7095V61.4575C78.9244 60.8793 79.9913 59.3356 79.9999 57.5997V52.1141C79.9932 50.377 78.9257 48.8314 77.3333 48.2526H45.3331ZM74.6666 64.4571H47.9998V61.7143H74.6666V64.4571Z" fill="#4EBCB9"></path><path d="M77.3334 74.0573C77.3334 74.8144 76.7365 75.4284 75.9998 75.4284H46.6669C45.9302 75.4284 45.3333 74.8144 45.3333 74.0573V68.5716C45.3333 67.8139 45.9302 67.1999 46.6669 67.1999H75.9998C76.7365 67.1999 77.3334 67.8139 77.3334 68.5716V74.0573Z" fill="#4EBCB9"></path><path d="M75.9998 58.9715H46.6669C45.9302 58.9715 45.3333 58.3575 45.3333 57.5998V52.1141C45.3333 51.357 45.9302 50.743 46.6669 50.743H75.9998C76.7365 50.743 77.3334 51.357 77.3334 52.1141V57.5998C77.3334 58.3575 76.7365 58.9715 75.9998 58.9715Z" fill="#4EBCB9"></path><path d="M50.6666 53.4858H49.3336C48.5969 53.4858 48 54.0998 48 54.8569C48 55.6147 48.5969 56.2287 49.3336 56.2287H50.6666C51.4033 56.2287 52.0002 55.6147 52.0002 54.8569C52.0002 54.0998 51.4033 53.4858 50.6666 53.4858Z" fill="#0C0C0C"></path><path d="M55.4932 53.5819C55.3314 53.656 55.1825 53.7583 55.0531 53.8832C54.8077 54.145 54.6692 54.4934 54.6667 54.8569C54.6667 55.6147 55.2637 56.2287 55.9998 56.2287C56.7365 56.2287 57.3334 55.6147 57.3334 54.8569C57.3309 54.4934 57.1924 54.145 56.9464 53.8832C56.5625 53.4965 55.993 53.3785 55.4932 53.5819Z" fill="#0C0C0C"></path><path d="M73.3331 52.5714H61.3336C60.5969 52.5714 60 53.0831 60 53.714C60 54.3455 60.5969 54.8571 61.3336 54.8571H73.3331C74.0698 54.8571 74.6667 54.3455 74.6667 53.714C74.6667 53.0831 74.0698 52.5714 73.3331 52.5714Z" fill="#4EBCB9"></path><path d="M50.6666 69.9427H49.3336C48.5969 69.9427 48 70.5567 48 71.3145C48 72.0716 48.5969 72.6855 49.3336 72.6855H50.6666C51.4033 72.6855 52.0002 72.0716 52.0002 71.3145C52.0002 70.5567 51.4033 69.9427 50.6666 69.9427Z" fill="#0C0C0C"></path><path d="M55.0531 70.3408C54.8077 70.6019 54.6692 70.951 54.6667 71.3145C54.6716 71.6773 54.8102 72.0251 55.0531 72.2882C55.1831 72.4093 55.332 72.5066 55.4932 72.5763C55.6537 72.646 55.8258 72.6837 55.9998 72.6855C56.355 72.6893 56.6962 72.5462 56.947 72.2882C57.1979 72.0301 57.337 71.6792 57.3334 71.3145C57.3309 70.951 57.1924 70.6019 56.9464 70.3408C56.4117 69.8329 55.5878 69.8329 55.0531 70.3408Z" fill="#0C0C0C"></path><path d="M73.3331 70.8571H61.3336C60.5969 70.8571 60 71.3688 60 72.0003C60 72.6312 60.5969 73.1429 61.3336 73.1429H73.3331C74.0698 73.1429 74.6667 72.6312 74.6667 72.0003C74.6667 71.3688 74.0698 70.8571 73.3331 70.8571Z" fill="#4EBCB9"></path></svg>